<svg width="608" height="186" viewBox="0 0 608 186" fill="none" xmlns="http://www.w3.org/2000/svg">
<path d="M45.2373 4.68457V102.334H19.5049V33.9609L4.67188 39.249L2 40.2012V19.5205L3.28809 19.0303L40.6094 4.81543L40.9531 4.68457H45.2373ZM96.8086 3.33398C103.191 3.33402 108.679 4.4422 113.178 6.77051L113.601 6.99219C117.938 9.31496 121.233 12.6494 123.429 16.9707H123.428C125.717 21.3466 126.816 26.5407 126.816 32.4766C126.816 35.918 126.351 39.2387 125.414 42.4307C124.487 45.5912 123.147 48.7125 121.404 51.793L121.398 51.8037C119.666 54.8217 117.536 57.907 115.017 61.0605C112.556 64.1415 109.735 67.4014 106.558 70.8408L100.39 81.6113H128.401V102.334H66.4707V85.4697L66.9229 84.917L92.7646 53.334C94.8241 50.3635 96.4329 47.7396 97.6055 45.4561L97.6084 45.4502L97.6123 45.4434C98.8472 43.0799 99.713 40.9975 100.238 39.1875C100.773 37.346 101.018 35.7582 101.018 34.4062C101.018 31.8195 100.763 29.773 100.306 28.2158L100.303 28.2041C99.8374 26.5806 99.2132 25.5534 98.5498 24.9355L98.5332 24.9209L98.5176 24.9053C97.9519 24.3545 97.2549 24.0567 96.2803 24.0566C95.3189 24.0566 94.4809 24.4152 93.6787 25.3164C92.7989 26.3049 92.0384 27.7498 91.4775 29.7666C90.9558 31.802 90.6836 34.1365 90.6836 36.7861V38.7861H64.8848V36.7861C64.8848 30.7378 66.2089 25.1613 68.8809 20.0947C71.5523 15.0292 75.2941 10.9709 80.0869 7.95117C84.934 4.85422 90.532 3.33398 96.8086 3.33398ZM158.967 3.39844C162.575 3.39844 165.815 4.11567 168.621 5.625H168.622C171.504 7.15138 173.728 9.42406 175.272 12.3838C176.828 15.3649 177.547 18.9873 177.547 23.1504V43.3467C177.547 45.3783 177.653 47.2945 177.863 49.0967C178.071 50.8762 178.425 52.6602 178.926 54.4492L179.637 56.9883H164.418L163.988 55.5674C163.918 55.336 163.851 55.102 163.786 54.8662C163.122 55.3633 162.409 55.8172 161.646 56.2266C159.562 57.3712 157.097 57.8896 154.343 57.8896C149.476 57.8896 145.447 56.4179 142.56 53.248L142.548 53.2354L142.537 53.2227C139.769 50.078 138.471 46.0123 138.471 41.2246C138.471 37.7635 139.218 34.6957 140.822 32.125L140.828 32.1162C142.492 29.4834 144.96 27.5431 148.101 26.2529C151.24 24.9633 155.11 24.3662 159.627 24.3662H162.581V23.0859C162.581 21.4645 162.397 20.2118 162.088 19.2754L162.085 19.2656L162.081 19.2559C161.78 18.3118 161.375 17.7972 160.972 17.5078L160.944 17.4883L160.919 17.4678C160.5 17.1461 159.898 16.918 158.967 16.918C157.32 16.918 156.246 17.3609 155.513 18.0488L155.498 18.0625L155.484 18.0752C154.829 18.6662 154.361 19.6212 154.361 21.2852V23.458L152.195 23.2783L141.362 22.3779L139.528 22.2256V20.3848C139.528 17.1319 140.319 14.1803 141.951 11.5977L141.957 11.5889C143.621 8.987 145.933 6.97036 148.832 5.53516L148.844 5.5293C151.808 4.0864 155.2 3.39844 158.967 3.39844ZM159.693 35.8916C157.916 35.8916 156.716 36.2035 155.937 36.6533L155.913 36.667L155.889 36.6797C155.015 37.1524 154.44 37.7347 154.072 38.4121C153.696 39.1883 153.503 40.031 153.503 40.9668C153.503 42.3505 153.855 43.216 154.357 43.7871C154.775 44.2268 155.559 44.6269 157.117 44.627C158.143 44.627 159.222 44.3489 160.375 43.7188C161.195 43.2416 161.928 42.7017 162.581 42.1025V35.8916H159.693Z" stroke="#E9BF31" stroke-width="4"/>
<path d="M226.195 46.1719V54.082H207.533V46.1719H226.195ZM211.02 11.4258V54.082H201V11.4258H211.02ZM223.764 28.3594V36.0059H207.533V28.3594H223.764ZM226.283 11.4258V19.3652H207.533V11.4258H226.283Z" fill="#E9BF31"/>
<path d="M245.414 35.9473H236.566L236.508 29.209H243.656C244.848 29.209 245.785 29.0332 246.469 28.6816C247.152 28.3105 247.641 27.7734 247.934 27.0703C248.246 26.3672 248.402 25.4883 248.402 24.4336C248.402 23.2227 248.246 22.2461 247.934 21.5039C247.621 20.7617 247.123 20.2246 246.439 19.8926C245.775 19.541 244.906 19.3652 243.832 19.3652H240.316V54.082H230.297V11.4258H243.832C246.117 11.4258 248.158 11.6699 249.955 12.1582C251.752 12.627 253.275 13.3496 254.525 14.3262C255.795 15.3027 256.762 16.5332 257.426 18.0176C258.09 19.4824 258.422 21.2109 258.422 23.2031C258.422 24.9414 258.1 26.5723 257.455 28.0957C256.83 29.6191 255.746 30.8594 254.203 31.8164C252.66 32.7539 250.541 33.2422 247.846 33.2812L245.414 35.9473ZM245.062 54.082H234.076L237.533 46.1719H245.062C246.078 46.1719 246.869 45.957 247.436 45.5273C248.002 45.0781 248.402 44.4922 248.637 43.7695C248.871 43.0273 248.988 42.207 248.988 41.3086C248.988 40.2148 248.871 39.2676 248.637 38.4668C248.422 37.666 248.061 37.0508 247.553 36.6211C247.045 36.1719 246.332 35.9473 245.414 35.9473H237.885L237.943 29.209H246.645L249.047 31.9043C251.605 31.7871 253.607 32.1875 255.053 33.1055C256.498 34.0234 257.514 35.2344 258.1 36.7383C258.686 38.2422 258.979 39.8145 258.979 41.4551C258.979 44.248 258.461 46.582 257.426 48.457C256.41 50.332 254.867 51.7383 252.797 52.6758C250.727 53.6133 248.148 54.082 245.062 54.082Z" fill="#E9BF31"/>
<path d="M276.381 54.082H268.559L268.617 46.1719H276.381C277.846 46.1719 279.037 45.8496 279.955 45.2051C280.893 44.5605 281.586 43.4961 282.035 42.0117C282.484 40.5078 282.709 38.5059 282.709 36.0059V29.4727C282.709 27.5977 282.582 26.0156 282.328 24.7266C282.094 23.4375 281.723 22.4023 281.215 21.6211C280.707 20.8398 280.033 20.2734 279.193 19.9219C278.354 19.5508 277.357 19.3652 276.205 19.3652H268.412V11.4258H276.205C278.705 11.4258 280.971 11.8359 283.002 12.6562C285.053 13.457 286.82 14.6484 288.305 16.2305C289.789 17.793 290.932 19.6875 291.732 21.9141C292.533 24.1406 292.934 26.6797 292.934 29.5312V36.0059C292.934 38.8379 292.533 41.377 291.732 43.623C290.932 45.8496 289.789 47.7441 288.305 49.3066C286.84 50.8691 285.092 52.0605 283.061 52.8809C281.049 53.6816 278.822 54.082 276.381 54.082ZM274.418 11.4258V54.082H264.398V11.4258H274.418Z" fill="#E9BF31"/>
<path d="M337.113 46.1719V54.082H318.451V46.1719H337.113ZM321.938 11.4258V54.082H311.918V11.4258H321.938ZM334.682 28.3594V36.0059H318.451V28.3594H334.682ZM337.201 11.4258V19.3652H318.451V11.4258H337.201Z" fill="#E9BF31"/>
<path d="M346.225 11.4258H354.34L361.049 41.1035L367.758 11.4258H375.844L364.359 54.082H357.738L346.225 11.4258ZM341.215 11.4258H349.623L351.234 44.1211V54.082H341.215V11.4258ZM372.445 11.4258H380.883V54.082H370.834V44.1211L372.445 11.4258Z" fill="#E9BF31"/>
<path d="M418.471 42.7441C418.471 42.0801 418.402 41.4844 418.266 40.957C418.148 40.4102 417.904 39.9023 417.533 39.4336C417.182 38.9648 416.645 38.4961 415.922 38.0273C415.199 37.5391 414.232 37.0312 413.021 36.5039C411.498 35.8789 410.004 35.1758 408.539 34.3945C407.074 33.5938 405.756 32.666 404.584 31.6113C403.432 30.5371 402.504 29.2871 401.801 27.8613C401.098 26.416 400.746 24.7363 400.746 22.8223C400.746 20.9863 401.098 19.3359 401.801 17.8711C402.523 16.3867 403.51 15.127 404.76 14.0918C406.029 13.0371 407.523 12.2363 409.242 11.6895C410.961 11.123 412.836 10.8398 414.867 10.8398C417.562 10.8398 419.936 11.3867 421.986 12.4805C424.057 13.5547 425.668 15.0879 426.82 17.0801C427.992 19.0527 428.578 21.3867 428.578 24.082H418.588C418.588 23.0078 418.451 22.0605 418.178 21.2402C417.904 20.4199 417.475 19.7754 416.889 19.3066C416.322 18.8379 415.57 18.6035 414.633 18.6035C413.793 18.6035 413.08 18.7988 412.494 19.1895C411.928 19.5801 411.498 20.1074 411.205 20.7715C410.912 21.416 410.766 22.1289 410.766 22.9102C410.766 23.5547 410.912 24.1406 411.205 24.668C411.498 25.1758 411.898 25.6543 412.406 26.1035C412.934 26.5527 413.539 26.9824 414.223 27.3926C414.926 27.8027 415.678 28.2031 416.479 28.5938C418.412 29.3164 420.121 30.127 421.605 31.0254C423.109 31.9043 424.369 32.9102 425.385 34.043C426.4 35.1562 427.162 36.4258 427.67 37.8516C428.197 39.2773 428.461 40.8887 428.461 42.6855C428.461 44.5996 428.148 46.2988 427.523 47.7832C426.918 49.2676 426.029 50.5273 424.857 51.5625C423.686 52.5781 422.27 53.3496 420.609 53.877C418.969 54.4043 417.113 54.668 415.043 54.668C413.148 54.668 411.283 54.3945 409.447 53.8477C407.631 53.2812 405.98 52.4219 404.496 51.2695C403.031 50.0977 401.859 48.6035 400.98 46.7871C400.102 44.9512 399.662 42.7734 399.662 40.2539H409.74C409.74 41.5039 409.838 42.5586 410.033 43.418C410.229 44.2773 410.531 44.9707 410.941 45.498C411.371 46.0059 411.918 46.377 412.582 46.6113C413.246 46.8262 414.066 46.9336 415.043 46.9336C415.941 46.9336 416.635 46.748 417.123 46.377C417.631 45.9863 417.982 45.4785 418.178 44.8535C418.373 44.209 418.471 43.5059 418.471 42.7441Z" fill="#E9BF31"/>
<path d="M444.105 11.4258V54.082H434.115V11.4258H444.105ZM434.555 9.19922L440.355 0H450.785L442.611 9.19922H434.555Z" fill="#E9BF31"/>
<path d="M481.137 11.4258V54.082H471.146L460.453 27.5391V54.082H450.434V11.4258H460.453L471.146 37.9688V11.4258H481.137Z" fill="#E9BF31"/>
<path d="M504.662 11.4258V54.082H494.613V11.4258H504.662ZM515.004 11.4258V19.3652H484.564V11.4258H515.004Z" fill="#E9BF31"/>
<path d="M544.535 46.1719V54.082H525.873V46.1719H544.535ZM529.359 11.4258V54.082H519.34V11.4258H529.359ZM542.104 28.3594V36.0059H525.873V28.3594H542.104ZM544.623 11.4258V19.3652H525.873V11.4258H544.623Z" fill="#E9BF31"/>
<path d="M566.537 42.7441C566.537 42.0801 566.469 41.4844 566.332 40.957C566.215 40.4102 565.971 39.9023 565.6 39.4336C565.248 38.9648 564.711 38.4961 563.988 38.0273C563.266 37.5391 562.299 37.0312 561.088 36.5039C559.564 35.8789 558.07 35.1758 556.605 34.3945C555.141 33.5938 553.822 32.666 552.65 31.6113C551.498 30.5371 550.57 29.2871 549.867 27.8613C549.164 26.416 548.812 24.7363 548.812 22.8223C548.812 20.9863 549.164 19.3359 549.867 17.8711C550.59 16.3867 551.576 15.127 552.826 14.0918C554.096 13.0371 555.59 12.2363 557.309 11.6895C559.027 11.123 560.902 10.8398 562.934 10.8398C565.629 10.8398 568.002 11.3867 570.053 12.4805C572.123 13.5547 573.734 15.0879 574.887 17.0801C576.059 19.0527 576.645 21.3867 576.645 24.082H566.654C566.654 23.0078 566.518 22.0605 566.244 21.2402C565.971 20.4199 565.541 19.7754 564.955 19.3066C564.389 18.8379 563.637 18.6035 562.699 18.6035C561.859 18.6035 561.146 18.7988 560.561 19.1895C559.994 19.5801 559.564 20.1074 559.271 20.7715C558.979 21.416 558.832 22.1289 558.832 22.9102C558.832 23.5547 558.979 24.1406 559.271 24.668C559.564 25.1758 559.965 25.6543 560.473 26.1035C561 26.5527 561.605 26.9824 562.289 27.3926C562.992 27.8027 563.744 28.2031 564.545 28.5938C566.479 29.3164 568.188 30.127 569.672 31.0254C571.176 31.9043 572.436 32.9102 573.451 34.043C574.467 35.1562 575.229 36.4258 575.736 37.8516C576.264 39.2773 576.527 40.8887 576.527 42.6855C576.527 44.5996 576.215 46.2988 575.59 47.7832C574.984 49.2676 574.096 50.5273 572.924 51.5625C571.752 52.5781 570.336 53.3496 568.676 53.877C567.035 54.4043 565.18 54.668 563.109 54.668C561.215 54.668 559.35 54.3945 557.514 53.8477C555.697 53.2812 554.047 52.4219 552.562 51.2695C551.098 50.0977 549.926 48.6035 549.047 46.7871C548.168 44.9512 547.729 42.7734 547.729 40.2539H557.807C557.807 41.5039 557.904 42.5586 558.1 43.418C558.295 44.2773 558.598 44.9707 559.008 45.498C559.438 46.0059 559.984 46.377 560.648 46.6113C561.312 46.8262 562.133 46.9336 563.109 46.9336C564.008 46.9336 564.701 46.748 565.189 46.377C565.697 45.9863 566.049 45.4785 566.244 44.8535C566.439 44.209 566.537 43.5059 566.537 42.7441Z" fill="#E9BF31"/>
<path d="M606.879 46.1719V54.082H588.217V46.1719H606.879ZM591.703 11.4258V54.082H581.684V11.4258H591.703ZM604.447 28.3594V36.0059H588.217V28.3594H604.447ZM606.967 11.4258V19.3652H588.217V11.4258H606.967Z" fill="#E9BF31"/>
<path d="M225.247 71.159V105.2H217.358L208.913 84.018V105.2H201V71.159H208.913L217.358 92.3413V71.159H225.247Z" fill="#E6A817"/>
<path d="M254.307 85.6312V90.7748C254.307 93.222 254.006 95.3729 253.405 97.2278C252.803 99.0826 251.947 100.641 250.837 101.904C249.726 103.151 248.407 104.094 246.88 104.733C245.369 105.356 243.687 105.668 241.837 105.668C239.97 105.668 238.273 105.356 236.746 104.733C235.219 104.094 233.901 103.151 232.79 101.904C231.679 100.641 230.823 99.0826 230.222 97.2278C229.62 95.3729 229.319 93.222 229.319 90.7748V85.6312C229.319 83.1841 229.62 81.0254 230.222 79.1549C230.823 77.2845 231.672 75.7259 232.767 74.4789C233.877 73.232 235.196 72.289 236.723 71.6499C238.25 71.0109 239.947 70.6913 241.813 70.6913C243.664 70.6913 245.353 71.0109 246.88 71.6499C248.423 72.289 249.742 73.232 250.837 74.4789C251.932 75.7259 252.78 77.2845 253.382 79.1549C253.999 81.0254 254.307 83.1841 254.307 85.6312ZM246.279 90.7748V85.5845C246.279 84.057 246.186 82.7555 246.001 81.68C245.816 80.6045 245.538 79.7317 245.168 79.0614C244.798 78.3912 244.335 77.9002 243.78 77.5885C243.225 77.2767 242.569 77.1209 241.813 77.1209C241.027 77.1209 240.356 77.2767 239.8 77.5885C239.245 77.9002 238.782 78.3912 238.412 79.0614C238.057 79.7317 237.795 80.6045 237.626 81.68C237.456 82.7555 237.371 84.057 237.371 85.5845V90.7748C237.371 92.2868 237.456 93.5805 237.626 94.6559C237.795 95.7158 238.057 96.5887 238.412 97.2745C238.782 97.9603 239.253 98.4669 239.824 98.7942C240.394 99.106 241.065 99.2618 241.837 99.2618C242.577 99.2618 243.225 99.106 243.78 98.7942C244.351 98.4669 244.813 97.9603 245.168 97.2745C245.538 96.5887 245.816 95.7158 246.001 94.6559C246.186 93.5805 246.279 92.2868 246.279 90.7748Z" fill="#E6A817"/>
<path d="M293.825 85.6312V90.7748C293.825 93.222 293.524 95.3729 292.923 97.2278C292.321 99.0826 291.465 100.641 290.354 101.904C289.244 103.151 287.925 104.094 286.398 104.733C284.886 105.356 283.205 105.668 281.354 105.668C279.488 105.668 277.791 105.356 276.264 104.733C274.737 104.094 273.418 103.151 272.308 101.904C271.197 100.641 270.341 99.0826 269.74 97.2278C269.138 95.3729 268.837 93.222 268.837 90.7748V85.6312C268.837 83.1841 269.138 81.0254 269.74 79.1549C270.341 77.2845 271.189 75.7259 272.285 74.4789C273.395 73.232 274.714 72.289 276.241 71.6499C277.768 71.0109 279.465 70.6913 281.331 70.6913C283.182 70.6913 284.871 71.0109 286.398 71.6499C287.94 72.289 289.259 73.232 290.354 74.4789C291.45 75.7259 292.298 77.2845 292.899 79.1549C293.516 81.0254 293.825 83.1841 293.825 85.6312ZM285.796 90.7748V85.5845C285.796 84.057 285.704 82.7555 285.519 81.68C285.334 80.6045 285.056 79.7317 284.686 79.0614C284.316 78.3912 283.853 77.9002 283.298 77.5885C282.742 77.2767 282.087 77.1209 281.331 77.1209C280.544 77.1209 279.873 77.2767 279.318 77.5885C278.763 77.9002 278.3 78.3912 277.93 79.0614C277.575 79.7317 277.313 80.6045 277.143 81.68C276.974 82.7555 276.889 84.057 276.889 85.5845V90.7748C276.889 92.2868 276.974 93.5805 277.143 94.6559C277.313 95.7158 277.575 96.5887 277.93 97.2745C278.3 97.9603 278.771 98.4669 279.341 98.7942C279.912 99.106 280.583 99.2618 281.354 99.2618C282.095 99.2618 282.742 99.106 283.298 98.7942C283.868 98.4669 284.331 97.9603 284.686 97.2745C285.056 96.5887 285.334 95.7158 285.519 94.6559C285.704 93.5805 285.796 92.2868 285.796 90.7748Z" fill="#E6A817"/>
<path d="M317.841 98.8877V105.2H303.103V98.8877H317.841ZM305.856 71.159V105.2H297.943V71.159H305.856ZM315.921 84.6726V90.7748H303.103V84.6726H315.921ZM317.91 71.159V77.495H303.103V71.159H317.91Z" fill="#E6A817"/>
<path d="M335.217 96.1523C335.217 95.6223 335.163 95.1469 335.055 94.7261C334.962 94.2897 334.769 93.8844 334.476 93.5103C334.199 93.1362 333.775 92.7622 333.204 92.3881C332.633 91.9984 331.87 91.5932 330.913 91.1723C329.71 90.6735 328.53 90.1124 327.373 89.4889C326.217 88.8499 325.175 88.1095 324.25 87.2678C323.34 86.4106 322.607 85.413 322.052 84.2752C321.497 83.1218 321.219 81.7813 321.219 80.2538C321.219 78.7887 321.497 77.4716 322.052 76.3026C322.623 75.118 323.402 74.1126 324.389 73.2865C325.391 72.4449 326.571 71.8058 327.929 71.3694C329.286 70.9174 330.767 70.6913 332.371 70.6913C334.5 70.6913 336.374 71.1278 337.993 72.0006C339.628 72.8579 340.901 74.0815 341.811 75.6713C342.736 77.2456 343.199 79.1082 343.199 81.2592H335.309C335.309 80.4019 335.201 79.6459 334.985 78.9913C334.769 78.3366 334.43 77.8223 333.967 77.4482C333.52 77.0741 332.926 76.8871 332.186 76.8871C331.523 76.8871 330.96 77.0429 330.497 77.3547C330.05 77.6664 329.71 78.0873 329.479 78.6172C329.247 79.1316 329.132 79.7005 329.132 80.3239C329.132 80.8383 329.247 81.3059 329.479 81.7268C329.71 82.132 330.026 82.5139 330.427 82.8724C330.844 83.2309 331.322 83.5738 331.862 83.9011C332.417 84.2284 333.011 84.548 333.643 84.8597C335.17 85.4364 336.52 86.0832 337.692 86.8002C338.88 87.5016 339.875 88.3044 340.677 89.2084C341.479 90.0968 342.081 91.11 342.482 92.2478C342.898 93.3856 343.106 94.6715 343.106 96.1055C343.106 97.633 342.86 98.9891 342.366 100.174C341.888 101.358 341.186 102.364 340.261 103.19C339.335 104 338.217 104.616 336.906 105.037C335.61 105.458 334.145 105.668 332.51 105.668C331.014 105.668 329.541 105.45 328.091 105.013C326.656 104.561 325.353 103.875 324.18 102.956C323.024 102.021 322.098 100.828 321.404 99.3787C320.71 97.9136 320.363 96.1757 320.363 94.165H328.322C328.322 95.1625 328.399 96.0042 328.553 96.69C328.708 97.3758 328.947 97.9292 329.271 98.35C329.61 98.7553 330.042 99.0514 330.566 99.2384C331.091 99.4099 331.739 99.4956 332.51 99.4956C333.219 99.4956 333.767 99.3476 334.152 99.0514C334.553 98.7397 334.831 98.3344 334.985 97.8356C335.14 97.3213 335.217 96.7602 335.217 96.1523Z" fill="#E6A817"/>
<path d="M361.87 71.159V105.2H353.934V71.159H361.87ZM370.038 71.159V77.495H345.999V71.159H370.038Z" fill="#E6A817"/>
<path d="M393.36 98.8877V105.2H378.621V98.8877H393.36ZM381.375 71.159V105.2H373.462V71.159H381.375ZM391.439 84.6726V90.7748H378.621V84.6726H391.439ZM393.429 71.159V77.495H378.621V71.159H393.429Z" fill="#E6A817"/>
<path d="M419.273 93.6506H412.54V87.3146H419.273C420.06 87.3146 420.692 87.1198 421.17 86.7301C421.664 86.3404 422.018 85.8027 422.234 85.1169C422.466 84.4155 422.581 83.6283 422.581 82.7555C422.581 81.8203 422.466 80.9552 422.234 80.1603C422.018 79.3654 421.664 78.7263 421.17 78.2431C420.692 77.7443 420.06 77.495 419.273 77.495H415.432V105.2H407.519V71.159H419.273C421.602 71.159 423.607 71.6577 425.288 72.6553C426.985 73.6528 428.289 75.0245 429.199 76.7702C430.124 78.5003 430.587 80.4798 430.587 82.7087C430.587 84.9064 430.124 86.8236 429.199 88.4602C428.289 90.0968 426.985 91.3749 425.288 92.2946C423.607 93.1986 421.602 93.6506 419.273 93.6506Z" fill="#E6A817"/>
<path d="M459.253 85.6312V90.7748C459.253 93.222 458.953 95.3729 458.351 97.2278C457.749 99.0826 456.893 100.641 455.783 101.904C454.672 103.151 453.353 104.094 451.826 104.733C450.315 105.356 448.633 105.668 446.783 105.668C444.916 105.668 443.219 105.356 441.692 104.733C440.165 104.094 438.847 103.151 437.736 101.904C436.625 100.641 435.769 99.0826 435.168 97.2278C434.566 95.3729 434.266 93.222 434.266 90.7748V85.6312C434.266 83.1841 434.566 81.0254 435.168 79.1549C435.769 77.2845 436.618 75.7259 437.713 74.4789C438.823 73.232 440.142 72.289 441.669 71.6499C443.196 71.0109 444.893 70.6913 446.759 70.6913C448.61 70.6913 450.299 71.0109 451.826 71.6499C453.369 72.289 454.688 73.232 455.783 74.4789C456.878 75.7259 457.726 77.2845 458.328 79.1549C458.945 81.0254 459.253 83.1841 459.253 85.6312ZM451.225 90.7748V85.5845C451.225 84.057 451.132 82.7555 450.947 81.68C450.762 80.6045 450.484 79.7317 450.114 79.0614C449.744 78.3912 449.281 77.9002 448.726 77.5885C448.171 77.2767 447.515 77.1209 446.759 77.1209C445.973 77.1209 445.302 77.2767 444.747 77.5885C444.191 77.9002 443.728 78.3912 443.358 79.0614C443.004 79.7317 442.741 80.6045 442.572 81.68C442.402 82.7555 442.317 84.057 442.317 85.5845V90.7748C442.317 92.2868 442.402 93.5805 442.572 94.6559C442.741 95.7158 443.004 96.5887 443.358 97.2745C443.728 97.9603 444.199 98.4669 444.77 98.7942C445.34 99.106 446.011 99.2618 446.783 99.2618C447.523 99.2618 448.171 99.106 448.726 98.7942C449.297 98.4669 449.759 97.9603 450.114 97.2745C450.484 96.5887 450.762 95.7158 450.947 94.6559C451.132 93.5805 451.225 92.2868 451.225 90.7748Z" fill="#E6A817"/>
<path d="M476.074 71.159V105.2H468.138V71.159H476.074ZM484.241 71.159V77.495H460.202V71.159H484.241Z" fill="#E6A817"/>
<path d="M495.948 71.159V105.2H488.059V71.159H495.948Z" fill="#E6A817"/>
<path d="M524.707 87.0107V101.226C524.183 101.74 523.412 102.348 522.394 103.049C521.376 103.751 520.095 104.366 518.553 104.896C517.026 105.411 515.221 105.668 513.139 105.668C511.211 105.668 509.476 105.372 507.933 104.78C506.391 104.187 505.072 103.291 503.977 102.091C502.897 100.875 502.064 99.3553 501.478 97.5317C500.892 95.6925 500.599 93.5181 500.599 91.0086V85.374C500.599 82.8802 500.892 80.7058 501.478 78.851C502.08 76.9962 502.92 75.4687 504 74.2685C505.08 73.0683 506.36 72.1721 507.841 71.5798C509.321 70.9719 510.964 70.668 512.769 70.668C515.468 70.668 517.682 71.1278 519.409 72.0474C521.152 72.967 522.455 74.2919 523.319 76.022C524.183 77.7366 524.638 79.8174 524.684 82.2645H517.095C517.034 80.9708 516.849 79.9343 516.54 79.1549C516.232 78.3756 515.792 77.8223 515.221 77.495C514.651 77.152 513.926 76.9806 513.046 76.9806C512.337 76.9806 511.704 77.1209 511.149 77.4014C510.609 77.682 510.147 78.1496 509.761 78.8042C509.391 79.4433 509.105 80.3006 508.905 81.3761C508.72 82.4515 508.627 83.7686 508.627 85.3273V91.0086C508.627 92.5517 508.72 93.861 508.905 94.9365C509.09 96.012 509.375 96.8693 509.761 97.5083C510.147 98.1474 510.663 98.615 511.311 98.9111C511.959 99.2073 512.761 99.3553 513.717 99.3553C514.304 99.3553 514.789 99.2774 515.175 99.1215C515.561 98.9657 515.885 98.7864 516.147 98.5838C516.409 98.3812 516.625 98.2409 516.795 98.163V92.6453H512.769V87.0107H524.707Z" fill="#E6A817"/>
<path d="M543.842 71.159H551.777V94.3286C551.777 96.9784 551.307 99.1449 550.366 100.828C549.425 102.496 548.106 103.72 546.41 104.499C544.713 105.278 542.708 105.668 540.394 105.668C538.096 105.668 536.091 105.278 534.379 104.499C532.666 103.72 531.325 102.496 530.353 100.828C529.396 99.1449 528.918 96.9784 528.918 94.3286V71.159H536.877V94.3286C536.877 95.7314 537.001 96.7991 537.248 97.5317C537.51 98.2487 537.903 98.7319 538.428 98.9813C538.952 99.2306 539.608 99.3553 540.394 99.3553C541.196 99.3553 541.852 99.2306 542.361 98.9813C542.87 98.7319 543.24 98.2487 543.471 97.5317C543.718 96.7991 543.842 95.7314 543.842 94.3286V71.159Z" fill="#E6A817"/>
<path d="M568.598 78.3133L562.328 105.2H553.814L564.202 71.159H569.523L568.598 78.3133ZM573.503 105.2L567.233 78.3133L566.192 71.159H571.606L582.017 105.2H573.503ZM573.757 92.505V98.841H559.158V92.505H573.757Z" fill="#E6A817"/>
<path d="M584.586 71.159H596.108C598.36 71.159 600.311 71.5486 601.961 72.328C603.612 73.1073 604.877 74.2607 605.756 75.7882C606.65 77.3157 607.098 79.2017 607.098 81.4462C607.098 83.3945 606.851 85.0233 606.357 86.3326C605.879 87.6419 605.2 88.7252 604.321 89.5825C603.442 90.4241 602.409 91.1178 601.221 91.6633L598.653 93.183H589.606L589.56 86.847H595.923C596.648 86.847 597.249 86.66 597.727 86.2859C598.205 85.9118 598.56 85.3818 598.792 84.696C599.038 83.9946 599.162 83.1607 599.162 82.1944C599.162 81.2124 599.046 80.3707 598.815 79.6693C598.583 78.9679 598.244 78.4302 597.797 78.0561C597.365 77.682 596.802 77.495 596.108 77.495H592.498V105.2H584.586V71.159ZM599.509 105.2L593.539 90.1436L601.915 90.0968L608 104.85V105.2H599.509Z" fill="#E6A817"/>
<rect width="608" height="56" transform="translate(0 129.668)" fill="#F8E7BD" fill-opacity="0.25"/>
<path d="M153.734 165.605V168.668H140.641V166.027L146.844 157.98C147.521 157.074 148.042 156.293 148.406 155.637C148.781 154.97 149.042 154.371 149.188 153.84C149.333 153.309 149.406 152.788 149.406 152.277C149.406 151.569 149.307 150.944 149.109 150.402C148.922 149.861 148.641 149.439 148.266 149.137C147.891 148.824 147.432 148.668 146.891 148.668C146.214 148.668 145.656 148.85 145.219 149.215C144.781 149.569 144.458 150.064 144.25 150.699C144.042 151.324 143.938 152.043 143.938 152.855H140.297C140.297 151.533 140.552 150.319 141.062 149.215C141.583 148.111 142.339 147.236 143.328 146.59C144.318 145.934 145.521 145.605 146.938 145.605C148.25 145.605 149.359 145.861 150.266 146.371C151.182 146.882 151.875 147.605 152.344 148.543C152.823 149.48 153.062 150.595 153.062 151.887C153.062 152.595 152.964 153.303 152.766 154.012C152.578 154.71 152.312 155.402 151.969 156.09C151.625 156.777 151.208 157.47 150.719 158.168C150.24 158.866 149.708 159.574 149.125 160.293L145.203 165.605H153.734ZM159.312 165.637H159.547C160.724 165.637 161.698 165.449 162.469 165.074C163.25 164.699 163.865 164.178 164.312 163.512C164.76 162.845 165.073 162.059 165.25 161.152C165.438 160.246 165.531 159.262 165.531 158.199V154.23C165.531 153.314 165.453 152.512 165.297 151.824C165.151 151.126 164.948 150.548 164.688 150.09C164.438 149.621 164.146 149.267 163.812 149.027C163.49 148.788 163.151 148.668 162.797 148.668C162.359 148.668 161.974 148.798 161.641 149.059C161.307 149.309 161.026 149.658 160.797 150.105C160.578 150.543 160.406 151.053 160.281 151.637C160.167 152.21 160.109 152.819 160.109 153.465C160.109 154.09 160.161 154.689 160.266 155.262C160.38 155.824 160.547 156.329 160.766 156.777C160.995 157.225 161.281 157.579 161.625 157.84C161.969 158.09 162.375 158.215 162.844 158.215C163.24 158.215 163.609 158.105 163.953 157.887C164.307 157.658 164.62 157.355 164.891 156.98C165.172 156.605 165.396 156.184 165.562 155.715C165.74 155.246 165.839 154.762 165.859 154.262L167.234 154.746C167.234 155.527 167.099 156.298 166.828 157.059C166.568 157.819 166.198 158.512 165.719 159.137C165.25 159.762 164.698 160.262 164.062 160.637C163.438 161.012 162.76 161.199 162.031 161.199C161.094 161.199 160.276 160.996 159.578 160.59C158.891 160.173 158.318 159.611 157.859 158.902C157.411 158.194 157.073 157.382 156.844 156.465C156.625 155.548 156.516 154.579 156.516 153.559C156.516 152.465 156.656 151.439 156.938 150.48C157.219 149.522 157.625 148.678 158.156 147.949C158.698 147.21 159.359 146.637 160.141 146.23C160.922 145.814 161.812 145.605 162.812 145.605C163.865 145.605 164.781 145.845 165.562 146.324C166.354 146.793 167.016 147.449 167.547 148.293C168.089 149.137 168.49 150.121 168.75 151.246C169.021 152.361 169.156 153.564 169.156 154.855V156.184C169.156 157.527 169.057 158.824 168.859 160.074C168.672 161.324 168.354 162.48 167.906 163.543C167.469 164.595 166.88 165.517 166.141 166.309C165.411 167.1 164.505 167.715 163.422 168.152C162.339 168.59 161.057 168.809 159.578 168.809H159.328L159.312 165.637ZM186.078 168.668H182.125L182.156 165.496H186.078C187.297 165.496 188.271 165.272 189 164.824C189.729 164.366 190.255 163.668 190.578 162.73C190.901 161.793 191.062 160.595 191.062 159.137V155.434C191.062 154.309 190.969 153.35 190.781 152.559C190.604 151.757 190.323 151.105 189.938 150.605C189.562 150.095 189.068 149.72 188.453 149.48C187.839 149.23 187.099 149.105 186.234 149.105H182.047V145.918H186.234C187.536 145.918 188.714 146.126 189.766 146.543C190.818 146.96 191.719 147.574 192.469 148.387C193.229 149.189 193.812 150.184 194.219 151.371C194.625 152.559 194.828 153.923 194.828 155.465V159.137C194.828 160.678 194.625 162.043 194.219 163.23C193.812 164.408 193.229 165.402 192.469 166.215C191.708 167.017 190.792 167.626 189.719 168.043C188.646 168.46 187.432 168.668 186.078 168.668ZM184.297 145.918V168.668H180.5V145.918H184.297ZM211.359 165.496V168.668H201.484V165.496H211.359ZM202.484 145.918V168.668H198.688V145.918H202.484ZM210.031 155.387V158.512H201.484V155.387H210.031ZM211.266 145.918V149.105H201.484V145.918H211.266ZM223.172 145.918H226.625L231.859 162.84L237.078 145.918H240.281L233.281 168.668H230.422L223.172 145.918ZM221.875 145.918H225.062L225.578 160.402V168.668H221.875V145.918ZM238.625 145.918H241.828V168.668H238.125V160.402L238.625 145.918ZM254.219 149.043L248.719 168.668H244.75L251.969 145.918H254.438L254.219 149.043ZM258.609 168.668L253.094 149.043L252.828 145.918H255.344L262.594 168.668H258.609ZM258.703 160.215V163.402H248.109V160.215H258.703ZM265.203 145.918H272.078C273.578 145.918 274.849 146.178 275.891 146.699C276.932 147.22 277.724 147.991 278.266 149.012C278.818 150.022 279.094 151.277 279.094 152.777C279.094 153.913 278.922 154.913 278.578 155.777C278.245 156.642 277.76 157.371 277.125 157.965C276.49 158.548 275.724 159.001 274.828 159.324L273.719 159.934H267.906L267.891 156.746H271.984C272.724 156.746 273.339 156.585 273.828 156.262C274.318 155.939 274.682 155.491 274.922 154.918C275.172 154.345 275.297 153.694 275.297 152.965C275.297 152.184 275.188 151.507 274.969 150.934C274.75 150.35 274.406 149.902 273.938 149.59C273.469 149.267 272.849 149.105 272.078 149.105H269V168.668H265.203V145.918ZM275.797 168.668L271.469 158.449L275.422 158.434L279.859 168.465V168.668H275.797ZM293.656 161.246H297.438C297.365 162.892 297.031 164.293 296.438 165.449C295.844 166.595 294.99 167.47 293.875 168.074C292.771 168.678 291.422 168.98 289.828 168.98C288.62 168.98 287.536 168.762 286.578 168.324C285.63 167.887 284.823 167.257 284.156 166.434C283.49 165.6 282.979 164.585 282.625 163.387C282.281 162.189 282.109 160.829 282.109 159.309V155.277C282.109 153.757 282.286 152.397 282.641 151.199C283.005 150.001 283.526 148.986 284.203 148.152C284.88 147.319 285.703 146.689 286.672 146.262C287.651 145.824 288.755 145.605 289.984 145.605C291.557 145.605 292.88 145.908 293.953 146.512C295.026 147.116 295.854 148.001 296.438 149.168C297.021 150.335 297.359 151.757 297.453 153.434H293.672C293.62 152.298 293.464 151.392 293.203 150.715C292.953 150.027 292.568 149.533 292.047 149.23C291.536 148.928 290.849 148.777 289.984 148.777C289.266 148.777 288.646 148.913 288.125 149.184C287.615 149.454 287.193 149.861 286.859 150.402C286.536 150.934 286.292 151.605 286.125 152.418C285.969 153.22 285.891 154.163 285.891 155.246V159.309C285.891 160.35 285.958 161.272 286.094 162.074C286.229 162.876 286.448 163.559 286.75 164.121C287.052 164.673 287.453 165.095 287.953 165.387C288.453 165.668 289.078 165.809 289.828 165.809C290.724 165.809 291.438 165.668 291.969 165.387C292.51 165.105 292.911 164.632 293.172 163.965C293.432 163.298 293.594 162.392 293.656 161.246ZM288.453 168.699H291.109L290.969 169.574C291.438 169.678 291.87 169.928 292.266 170.324C292.672 170.73 292.875 171.382 292.875 172.277C292.875 172.809 292.781 173.288 292.594 173.715C292.417 174.142 292.141 174.512 291.766 174.824C291.391 175.137 290.927 175.376 290.375 175.543C289.833 175.71 289.193 175.793 288.453 175.793L288.359 173.605C288.682 173.605 288.958 173.559 289.188 173.465C289.417 173.371 289.594 173.22 289.719 173.012C289.854 172.814 289.922 172.548 289.922 172.215C289.922 171.902 289.854 171.658 289.719 171.48C289.594 171.303 289.396 171.168 289.125 171.074C288.854 170.98 288.49 170.913 288.031 170.871L288.453 168.699ZM316.219 155.434V159.309C316.219 160.913 316.031 162.319 315.656 163.527C315.292 164.736 314.76 165.746 314.062 166.559C313.375 167.361 312.542 167.965 311.562 168.371C310.594 168.777 309.51 168.98 308.312 168.98C307.125 168.98 306.042 168.777 305.062 168.371C304.094 167.965 303.255 167.361 302.547 166.559C301.849 165.746 301.307 164.736 300.922 163.527C300.547 162.319 300.359 160.913 300.359 159.309V155.434C300.359 153.809 300.547 152.387 300.922 151.168C301.297 149.939 301.833 148.913 302.531 148.09C303.24 147.267 304.078 146.647 305.047 146.23C306.026 145.814 307.104 145.605 308.281 145.605C309.479 145.605 310.562 145.814 311.531 146.23C312.51 146.647 313.349 147.267 314.047 148.09C314.745 148.913 315.281 149.939 315.656 151.168C316.031 152.387 316.219 153.809 316.219 155.434ZM312.453 159.309V155.402C312.453 154.246 312.359 153.257 312.172 152.434C311.995 151.6 311.729 150.923 311.375 150.402C311.021 149.871 310.583 149.48 310.062 149.23C309.552 148.97 308.958 148.84 308.281 148.84C307.625 148.84 307.036 148.97 306.516 149.23C306.005 149.48 305.568 149.871 305.203 150.402C304.849 150.923 304.578 151.6 304.391 152.434C304.214 153.257 304.125 154.246 304.125 155.402V159.309C304.125 160.444 304.219 161.423 304.406 162.246C304.594 163.059 304.865 163.725 305.219 164.246C305.583 164.757 306.026 165.137 306.547 165.387C307.068 165.637 307.656 165.762 308.312 165.762C308.979 165.762 309.573 165.637 310.094 165.387C310.615 165.137 311.047 164.757 311.391 164.246C311.745 163.725 312.01 163.059 312.188 162.246C312.365 161.423 312.453 160.444 312.453 159.309ZM330.898 145.918V172.887H328.367V145.918H330.898ZM352.288 145.84V168.668H348.648V150.402L344.116 152.277V149.105L351.851 145.84H352.288ZM372.905 160.512V163.574H358.999L358.905 161.246L366.967 145.918H369.858L366.921 151.621L362.624 160.512H372.905ZM370.702 145.918V168.668H367.046V145.918H370.702ZM391.623 165.23V156.809C391.623 156.225 391.54 155.757 391.373 155.402C391.217 155.048 390.982 154.793 390.67 154.637C390.368 154.47 389.988 154.387 389.529 154.387C389.05 154.387 388.644 154.486 388.311 154.684C387.988 154.882 387.743 155.152 387.576 155.496C387.41 155.829 387.326 156.215 387.326 156.652H383.686C383.686 155.975 383.821 155.324 384.092 154.699C384.373 154.074 384.774 153.517 385.295 153.027C385.816 152.538 386.446 152.152 387.186 151.871C387.925 151.59 388.748 151.449 389.654 151.449C390.738 151.449 391.701 151.632 392.545 151.996C393.389 152.35 394.05 152.928 394.529 153.73C395.019 154.522 395.264 155.564 395.264 156.855V164.746C395.264 165.527 395.311 166.225 395.404 166.84C395.509 167.444 395.649 167.97 395.826 168.418V168.668H392.123C391.956 168.262 391.831 167.741 391.748 167.105C391.665 166.47 391.623 165.845 391.623 165.23ZM392.107 158.371L392.123 160.73H390.373C389.852 160.73 389.384 160.803 388.967 160.949C388.55 161.085 388.196 161.283 387.904 161.543C387.623 161.793 387.404 162.1 387.248 162.465C387.102 162.829 387.029 163.23 387.029 163.668C387.029 164.199 387.102 164.632 387.248 164.965C387.404 165.298 387.628 165.548 387.92 165.715C388.222 165.871 388.587 165.949 389.014 165.949C389.597 165.949 390.102 165.824 390.529 165.574C390.967 165.314 391.3 165.001 391.529 164.637C391.769 164.272 391.863 163.939 391.811 163.637L392.639 165.152C392.555 165.548 392.399 165.965 392.17 166.402C391.951 166.84 391.665 167.257 391.311 167.652C390.956 168.048 390.529 168.371 390.029 168.621C389.529 168.861 388.951 168.98 388.295 168.98C387.347 168.98 386.503 168.783 385.764 168.387C385.024 167.991 384.441 167.423 384.014 166.684C383.597 165.934 383.389 165.038 383.389 163.996C383.389 163.152 383.529 162.387 383.811 161.699C384.092 161.012 384.509 160.423 385.061 159.934C385.613 159.434 386.305 159.048 387.139 158.777C387.982 158.507 388.967 158.371 390.092 158.371H392.107ZM388.561 144.668L391.623 149.387H388.482L384.279 144.668H388.561ZM407.146 164.215C407.146 163.861 407.042 163.548 406.834 163.277C406.636 162.996 406.313 162.72 405.865 162.449C405.417 162.178 404.818 161.887 404.068 161.574C403.287 161.251 402.594 160.928 401.99 160.605C401.386 160.283 400.875 159.928 400.459 159.543C400.042 159.147 399.724 158.694 399.506 158.184C399.287 157.673 399.177 157.079 399.177 156.402C399.177 155.704 399.308 155.059 399.568 154.465C399.829 153.871 400.204 153.35 400.693 152.902C401.183 152.444 401.771 152.09 402.459 151.84C403.146 151.579 403.922 151.449 404.787 151.449C406.006 151.449 407.047 151.673 407.912 152.121C408.787 152.559 409.454 153.173 409.912 153.965C410.381 154.746 410.615 155.647 410.615 156.668H406.974C406.974 156.241 406.896 155.855 406.74 155.512C406.584 155.158 406.344 154.876 406.021 154.668C405.698 154.449 405.287 154.34 404.787 154.34C404.329 154.34 403.943 154.428 403.631 154.605C403.329 154.772 403.099 155.001 402.943 155.293C402.797 155.574 402.724 155.892 402.724 156.246C402.724 156.507 402.771 156.736 402.865 156.934C402.959 157.132 403.115 157.324 403.334 157.512C403.552 157.689 403.844 157.871 404.209 158.059C404.584 158.246 405.058 158.46 405.631 158.699C406.766 159.137 407.709 159.59 408.459 160.059C409.209 160.527 409.771 161.074 410.146 161.699C410.521 162.324 410.709 163.1 410.709 164.027C410.709 164.777 410.568 165.454 410.287 166.059C410.016 166.663 409.62 167.184 409.099 167.621C408.589 168.059 407.969 168.397 407.24 168.637C406.521 168.866 405.719 168.98 404.834 168.98C403.511 168.98 402.391 168.72 401.474 168.199C400.568 167.668 399.881 166.986 399.412 166.152C398.943 165.319 398.709 164.439 398.709 163.512H402.224C402.256 164.178 402.396 164.699 402.646 165.074C402.907 165.449 403.235 165.71 403.631 165.855C404.026 165.991 404.438 166.059 404.865 166.059C405.375 166.059 405.797 165.991 406.131 165.855C406.464 165.71 406.714 165.496 406.881 165.215C407.058 164.934 407.146 164.6 407.146 164.215ZM430.739 145.84V168.668H427.099V150.402L422.568 152.277V149.105L430.302 145.84H430.739ZM450.7 162.465C450.7 163.882 450.424 165.074 449.872 166.043C449.33 167.012 448.58 167.746 447.622 168.246C446.674 168.736 445.601 168.98 444.403 168.98C443.195 168.98 442.111 168.736 441.153 168.246C440.205 167.746 439.45 167.012 438.888 166.043C438.335 165.074 438.059 163.882 438.059 162.465C438.059 161.517 438.21 160.663 438.513 159.902C438.825 159.142 439.263 158.48 439.825 157.918C440.398 157.355 441.07 156.923 441.841 156.621C442.611 156.319 443.455 156.168 444.372 156.168C445.591 156.168 446.679 156.434 447.638 156.965C448.596 157.496 449.346 158.23 449.888 159.168C450.429 160.105 450.7 161.204 450.7 162.465ZM447.075 162.262C447.075 161.501 446.96 160.84 446.731 160.277C446.513 159.715 446.2 159.283 445.794 158.98C445.398 158.668 444.924 158.512 444.372 158.512C443.82 158.512 443.346 158.668 442.95 158.98C442.554 159.283 442.247 159.715 442.028 160.277C441.809 160.84 441.7 161.501 441.7 162.262C441.7 163.022 441.804 163.678 442.013 164.23C442.231 164.772 442.539 165.189 442.934 165.48C443.341 165.772 443.83 165.918 444.403 165.918C444.966 165.918 445.445 165.772 445.841 165.48C446.247 165.189 446.554 164.772 446.763 164.23C446.971 163.678 447.075 163.022 447.075 162.262ZM450.309 151.902C450.309 153.048 450.054 154.064 449.544 154.949C449.033 155.835 448.335 156.527 447.45 157.027C446.565 157.527 445.549 157.777 444.403 157.777C443.247 157.777 442.221 157.527 441.325 157.027C440.429 156.527 439.726 155.835 439.216 154.949C438.716 154.064 438.466 153.048 438.466 151.902C438.466 150.559 438.716 149.418 439.216 148.48C439.726 147.543 440.429 146.829 441.325 146.34C442.221 145.85 443.247 145.605 444.403 145.605C445.559 145.605 446.58 145.85 447.466 146.34C448.351 146.829 449.044 147.543 449.544 148.48C450.054 149.418 450.309 150.559 450.309 151.902ZM446.669 152.043C446.669 151.376 446.58 150.793 446.403 150.293C446.226 149.783 445.966 149.387 445.622 149.105C445.289 148.814 444.882 148.668 444.403 148.668C443.924 148.668 443.513 148.803 443.169 149.074C442.825 149.345 442.559 149.736 442.372 150.246C442.195 150.746 442.106 151.345 442.106 152.043C442.106 152.73 442.195 153.329 442.372 153.84C442.559 154.35 442.825 154.751 443.169 155.043C443.513 155.324 443.924 155.465 444.403 155.465C444.882 155.465 445.289 155.324 445.622 155.043C445.966 154.751 446.226 154.35 446.403 153.84C446.58 153.329 446.669 152.73 446.669 152.043ZM458.114 144.668V168.668H454.489V144.668H458.114ZM457.473 159.605H456.317C456.306 158.428 456.431 157.345 456.692 156.355C456.952 155.366 457.327 154.501 457.817 153.762C458.306 153.022 458.895 152.454 459.582 152.059C460.28 151.652 461.051 151.449 461.895 151.449C462.593 151.449 463.223 151.569 463.786 151.809C464.359 152.038 464.848 152.402 465.254 152.902C465.671 153.402 465.989 154.059 466.207 154.871C466.426 155.673 466.536 156.652 466.536 157.809V168.668H462.895V157.777C462.895 156.975 462.806 156.34 462.629 155.871C462.463 155.402 462.213 155.064 461.879 154.855C461.546 154.647 461.124 154.543 460.614 154.543C460.114 154.543 459.666 154.678 459.27 154.949C458.885 155.21 458.556 155.574 458.286 156.043C458.015 156.501 457.812 157.038 457.676 157.652C457.541 158.257 457.473 158.908 457.473 159.605Z" fill="#F8E7BD"/>
</svg>
