<svg width="381" height="185" viewBox="0 0 381 185" fill="none" xmlns="http://www.w3.org/2000/svg">
<mask id="path-1-outside-1_903_111" maskUnits="userSpaceOnUse" x="1" y="1" width="183" height="103" fill="black">
<rect fill="white" x="1" y="1" width="183" height="103"/>
<path d="M23.9824 43.5838H33.2514C35.029 43.5838 36.4892 43.1185 37.6319 42.1877C38.7747 41.2147 39.6212 39.8608 40.1714 38.1263C40.7216 36.3494 40.9967 34.2552 40.9967 31.8437C40.9967 29.9822 40.7216 28.2688 40.1714 26.7034C39.6635 25.1381 38.8593 23.89 37.7589 22.9593C36.7008 21.9862 35.3464 21.4997 33.6958 21.4997C32.68 21.4997 31.6431 21.8593 30.585 22.5785C29.5692 23.2554 28.7227 24.2285 28.0455 25.4977C27.3683 26.7669 27.0297 28.3111 27.0297 30.1303H6.14275C6.14275 24.8842 7.39131 20.3997 9.88844 16.6767C12.3856 12.9114 15.6657 10.0345 19.7288 8.04609C23.8343 6.01536 28.2571 5 32.9974 5C38.6689 5 43.6631 6.01536 47.9802 8.04609C52.2972 10.0345 55.6832 12.996 58.138 16.9305C60.5928 20.8228 61.8202 25.6457 61.8202 31.3995C61.8202 34.5725 61.1853 37.5551 59.9156 40.3474C58.6459 43.1396 56.8683 45.5934 54.5828 47.7088C52.2972 49.8241 49.652 51.4952 46.647 52.7221C43.642 53.9067 40.3618 54.499 36.8066 54.499H23.9824V43.5838ZM23.9824 59.5124V48.851H36.8066C40.7004 48.851 44.2557 49.3799 47.4723 50.4375C50.6889 51.4529 53.44 52.976 55.7255 55.0067C58.0533 57.0374 59.8521 59.5547 61.1218 62.5585C62.3916 65.5199 63.0264 68.9256 63.0264 72.7756C63.0264 77.0909 62.2646 80.9408 60.7409 84.3253C59.2172 87.7099 57.0799 90.5656 54.3288 92.8925C51.5777 95.2193 48.3823 96.9962 44.7424 98.2231C41.1025 99.4077 37.1452 100 32.8705 100C29.5692 100 26.2679 99.4923 22.9666 98.477C19.7076 97.4193 16.7238 95.8116 14.015 93.654C11.3063 91.454 9.12661 88.6618 7.47596 85.2772C5.82532 81.8504 5 77.7678 5 73.0294H25.9505C25.9505 74.9755 26.3102 76.7524 27.0297 78.3601C27.7492 79.9254 28.6804 81.1735 29.8231 82.1042C31.0082 83.035 32.2568 83.5003 33.5688 83.5003C35.3887 83.5003 36.9336 83.0138 38.2033 82.0407C39.473 81.0254 40.4465 79.6716 41.1237 77.9793C41.8009 76.287 42.1395 74.4044 42.1395 72.3313C42.1395 69.2006 41.8009 66.7045 41.1237 64.843C40.4465 62.9815 39.4519 61.6277 38.1398 60.7816C36.8278 59.9354 35.1983 59.5124 33.2514 59.5124H23.9824Z"/>
<path d="M115.149 5H118.386V21.817H117.434C114.217 21.817 111.212 22.3881 108.419 23.5304C105.626 24.6727 103.171 26.4073 101.055 28.7341C98.9385 31.0187 97.309 33.9167 96.1662 37.4282C95.0235 40.9397 94.4521 45.0646 94.4521 49.8029V65.9853C94.4521 68.9468 94.6002 71.5275 94.8965 73.7275C95.2351 75.9274 95.7007 77.7466 96.2932 79.185C96.9281 80.6235 97.7322 81.7023 98.7057 82.4215C99.7215 83.1407 100.907 83.5003 102.261 83.5003C103.361 83.5003 104.377 83.1196 105.308 82.358C106.282 81.5965 107.107 80.5177 107.784 79.1216C108.504 77.7254 109.054 76.0966 109.435 74.2351C109.816 72.3736 110.006 70.3429 110.006 68.143C110.006 65.7738 109.773 63.6373 109.308 61.7335C108.885 59.8297 108.292 58.222 107.53 56.9105C106.811 55.5567 105.922 54.5413 104.864 53.8644C103.848 53.1452 102.769 52.7856 101.626 52.7856C99.6368 52.7856 98.0073 53.399 96.7376 54.6259C95.5102 55.8105 94.6214 57.3336 94.0712 59.1951C93.521 61.0566 93.2459 62.9392 93.2459 64.843L88.5479 59.6393C88.4632 57.1009 88.823 54.4778 89.6272 51.7702C90.4736 49.0626 91.7434 46.5453 93.4363 44.2184C95.1293 41.8916 97.2667 40.0089 99.8484 38.5705C102.473 37.132 105.541 36.4128 109.054 36.4128C112.609 36.4128 115.741 37.2167 118.45 38.8243C121.159 40.432 123.444 42.6742 125.306 45.5511C127.169 48.428 128.565 51.7914 129.497 55.6413C130.47 59.4912 130.957 63.6584 130.957 68.143C130.957 72.6698 130.258 76.8793 128.862 80.7715C127.465 84.6215 125.518 87.9849 123.021 90.8617C120.566 93.7386 117.603 95.9809 114.133 97.5885C110.705 99.1962 106.938 100 102.832 100C98.6422 100 94.7695 99.175 91.2143 97.5251C87.7014 95.8328 84.6117 93.4001 81.9453 90.2271C79.2789 87.0118 77.205 83.0984 75.7237 78.487C74.2846 73.8755 73.5651 68.6506 73.5651 62.8123V55.0067C73.5651 47.0953 74.6656 40.0512 76.8664 33.8744C79.1096 27.6976 82.1569 22.4727 86.0084 18.1997C89.9023 13.8844 94.3463 10.6057 99.3406 8.36339C104.377 6.12113 109.646 5 115.149 5Z"/>
<path d="M166.065 44.0915V22.515C166.065 20.7804 165.874 19.3209 165.493 18.1363C165.112 16.9094 164.52 15.9998 163.716 15.4075C162.911 14.7729 161.896 14.4556 160.668 14.4556C158.721 14.4556 157.177 15.0056 156.034 16.1055C154.891 17.1632 154.32 18.7074 154.32 20.7381L143.908 19.8497C143.908 16.9728 144.585 14.4344 145.939 12.2345C147.336 9.99221 149.283 8.23647 151.78 6.96727C154.32 5.69806 157.282 5.06346 160.668 5.06346C163.885 5.06346 166.678 5.71922 169.048 7.03073C171.461 8.34224 173.323 10.2884 174.635 12.8691C175.947 15.4498 176.603 18.6863 176.603 22.5785V42.505C176.603 44.578 176.709 46.5453 176.921 48.4068C177.132 50.2683 177.492 52.1298 178 53.9913H167.334C166.488 51.1145 166.065 47.8145 166.065 44.0915ZM168.604 25.7515L168.668 33.1764H161.367C159.462 33.1764 157.938 33.5148 156.796 34.1917C155.653 34.8263 154.806 35.6725 154.256 36.7301C153.748 37.7878 153.494 38.9301 153.494 40.157C153.494 41.8916 153.939 43.2665 154.828 44.2819C155.716 45.255 157.071 45.7415 158.891 45.7415C160.245 45.7415 161.599 45.3607 162.954 44.5992C164.308 43.7954 165.472 42.8223 166.446 41.68C167.419 40.5377 167.906 39.4589 167.906 38.4436L168.794 45.8684C168.287 47.2222 167.504 48.5972 166.446 49.9933C165.387 51.3894 164.012 52.5529 162.319 53.4836C160.668 54.4144 158.637 54.8798 156.224 54.8798C151.949 54.8798 148.648 53.5682 146.32 50.9452C144.035 48.2799 142.892 44.7684 142.892 40.4108C142.892 37.2801 143.548 34.6359 144.86 32.4783C146.215 30.2783 148.246 28.6072 150.955 27.4649C153.664 26.3226 157.113 25.7515 161.303 25.7515H168.604Z"/>
</mask>
<path d="M23.9824 43.5838H33.2514C35.029 43.5838 36.4892 43.1185 37.6319 42.1877C38.7747 41.2147 39.6212 39.8608 40.1714 38.1263C40.7216 36.3494 40.9967 34.2552 40.9967 31.8437C40.9967 29.9822 40.7216 28.2688 40.1714 26.7034C39.6635 25.1381 38.8593 23.89 37.7589 22.9593C36.7008 21.9862 35.3464 21.4997 33.6958 21.4997C32.68 21.4997 31.6431 21.8593 30.585 22.5785C29.5692 23.2554 28.7227 24.2285 28.0455 25.4977C27.3683 26.7669 27.0297 28.3111 27.0297 30.1303H6.14275C6.14275 24.8842 7.39131 20.3997 9.88844 16.6767C12.3856 12.9114 15.6657 10.0345 19.7288 8.04609C23.8343 6.01536 28.2571 5 32.9974 5C38.6689 5 43.6631 6.01536 47.9802 8.04609C52.2972 10.0345 55.6832 12.996 58.138 16.9305C60.5928 20.8228 61.8202 25.6457 61.8202 31.3995C61.8202 34.5725 61.1853 37.5551 59.9156 40.3474C58.6459 43.1396 56.8683 45.5934 54.5828 47.7088C52.2972 49.8241 49.652 51.4952 46.647 52.7221C43.642 53.9067 40.3618 54.499 36.8066 54.499H23.9824V43.5838ZM23.9824 59.5124V48.851H36.8066C40.7004 48.851 44.2557 49.3799 47.4723 50.4375C50.6889 51.4529 53.44 52.976 55.7255 55.0067C58.0533 57.0374 59.8521 59.5547 61.1218 62.5585C62.3916 65.5199 63.0264 68.9256 63.0264 72.7756C63.0264 77.0909 62.2646 80.9408 60.7409 84.3253C59.2172 87.7099 57.0799 90.5656 54.3288 92.8925C51.5777 95.2193 48.3823 96.9962 44.7424 98.2231C41.1025 99.4077 37.1452 100 32.8705 100C29.5692 100 26.2679 99.4923 22.9666 98.477C19.7076 97.4193 16.7238 95.8116 14.015 93.654C11.3063 91.454 9.12661 88.6618 7.47596 85.2772C5.82532 81.8504 5 77.7678 5 73.0294H25.9505C25.9505 74.9755 26.3102 76.7524 27.0297 78.3601C27.7492 79.9254 28.6804 81.1735 29.8231 82.1042C31.0082 83.035 32.2568 83.5003 33.5688 83.5003C35.3887 83.5003 36.9336 83.0138 38.2033 82.0407C39.473 81.0254 40.4465 79.6716 41.1237 77.9793C41.8009 76.287 42.1395 74.4044 42.1395 72.3313C42.1395 69.2006 41.8009 66.7045 41.1237 64.843C40.4465 62.9815 39.4519 61.6277 38.1398 60.7816C36.8278 59.9354 35.1983 59.5124 33.2514 59.5124H23.9824Z" stroke="#E9BF31" stroke-width="8" mask="url(#path-1-outside-1_903_111)"/>
<path d="M115.149 5H118.386V21.817H117.434C114.217 21.817 111.212 22.3881 108.419 23.5304C105.626 24.6727 103.171 26.4073 101.055 28.7341C98.9385 31.0187 97.309 33.9167 96.1662 37.4282C95.0235 40.9397 94.4521 45.0646 94.4521 49.8029V65.9853C94.4521 68.9468 94.6002 71.5275 94.8965 73.7275C95.2351 75.9274 95.7007 77.7466 96.2932 79.185C96.9281 80.6235 97.7322 81.7023 98.7057 82.4215C99.7215 83.1407 100.907 83.5003 102.261 83.5003C103.361 83.5003 104.377 83.1196 105.308 82.358C106.282 81.5965 107.107 80.5177 107.784 79.1216C108.504 77.7254 109.054 76.0966 109.435 74.2351C109.816 72.3736 110.006 70.3429 110.006 68.143C110.006 65.7738 109.773 63.6373 109.308 61.7335C108.885 59.8297 108.292 58.222 107.53 56.9105C106.811 55.5567 105.922 54.5413 104.864 53.8644C103.848 53.1452 102.769 52.7856 101.626 52.7856C99.6368 52.7856 98.0073 53.399 96.7376 54.6259C95.5102 55.8105 94.6214 57.3336 94.0712 59.1951C93.521 61.0566 93.2459 62.9392 93.2459 64.843L88.5479 59.6393C88.4632 57.1009 88.823 54.4778 89.6272 51.7702C90.4736 49.0626 91.7434 46.5453 93.4363 44.2184C95.1293 41.8916 97.2667 40.0089 99.8484 38.5705C102.473 37.132 105.541 36.4128 109.054 36.4128C112.609 36.4128 115.741 37.2167 118.45 38.8243C121.159 40.432 123.444 42.6742 125.306 45.5511C127.169 48.428 128.565 51.7914 129.497 55.6413C130.47 59.4912 130.957 63.6584 130.957 68.143C130.957 72.6698 130.258 76.8793 128.862 80.7715C127.465 84.6215 125.518 87.9849 123.021 90.8617C120.566 93.7386 117.603 95.9809 114.133 97.5885C110.705 99.1962 106.938 100 102.832 100C98.6422 100 94.7695 99.175 91.2143 97.5251C87.7014 95.8328 84.6117 93.4001 81.9453 90.2271C79.2789 87.0118 77.205 83.0984 75.7237 78.487C74.2846 73.8755 73.5651 68.6506 73.5651 62.8123V55.0067C73.5651 47.0953 74.6656 40.0512 76.8664 33.8744C79.1096 27.6976 82.1569 22.4727 86.0084 18.1997C89.9023 13.8844 94.3463 10.6057 99.3406 8.36339C104.377 6.12113 109.646 5 115.149 5Z" stroke="#E9BF31" stroke-width="8" mask="url(#path-1-outside-1_903_111)"/>
<path d="M166.065 44.0915V22.515C166.065 20.7804 165.874 19.3209 165.493 18.1363C165.112 16.9094 164.52 15.9998 163.716 15.4075C162.911 14.7729 161.896 14.4556 160.668 14.4556C158.721 14.4556 157.177 15.0056 156.034 16.1055C154.891 17.1632 154.32 18.7074 154.32 20.7381L143.908 19.8497C143.908 16.9728 144.585 14.4344 145.939 12.2345C147.336 9.99221 149.283 8.23647 151.78 6.96727C154.32 5.69806 157.282 5.06346 160.668 5.06346C163.885 5.06346 166.678 5.71922 169.048 7.03073C171.461 8.34224 173.323 10.2884 174.635 12.8691C175.947 15.4498 176.603 18.6863 176.603 22.5785V42.505C176.603 44.578 176.709 46.5453 176.921 48.4068C177.132 50.2683 177.492 52.1298 178 53.9913H167.334C166.488 51.1145 166.065 47.8145 166.065 44.0915ZM168.604 25.7515L168.668 33.1764H161.367C159.462 33.1764 157.938 33.5148 156.796 34.1917C155.653 34.8263 154.806 35.6725 154.256 36.7301C153.748 37.7878 153.494 38.9301 153.494 40.157C153.494 41.8916 153.939 43.2665 154.828 44.2819C155.716 45.255 157.071 45.7415 158.891 45.7415C160.245 45.7415 161.599 45.3607 162.954 44.5992C164.308 43.7954 165.472 42.8223 166.446 41.68C167.419 40.5377 167.906 39.4589 167.906 38.4436L168.794 45.8684C168.287 47.2222 167.504 48.5972 166.446 49.9933C165.387 51.3894 164.012 52.5529 162.319 53.4836C160.668 54.4144 158.637 54.8798 156.224 54.8798C151.949 54.8798 148.648 53.5682 146.32 50.9452C144.035 48.2799 142.892 44.7684 142.892 40.4108C142.892 37.2801 143.548 34.6359 144.86 32.4783C146.215 30.2783 148.246 28.6072 150.955 27.4649C153.664 26.3226 157.113 25.7515 161.303 25.7515H168.604Z" stroke="#E9BF31" stroke-width="8" mask="url(#path-1-outside-1_903_111)"/>
<path d="M226.932 34.2115V42H208.465V34.2115H226.932ZM211.915 0V42H202V0H211.915ZM224.525 16.6731V24.2019H208.465V16.6731H224.525ZM227.019 0V7.81731H208.465V0H227.019Z" fill="#E9BF31"/>
<path d="M245.949 24.1442H237.194L237.136 17.5096H244.21C245.389 17.5096 246.316 17.3365 246.993 16.9904C247.669 16.625 248.152 16.0962 248.442 15.4038C248.752 14.7115 248.906 13.8462 248.906 12.8077C248.906 11.6154 248.752 10.6538 248.442 9.92308C248.133 9.19231 247.64 8.66346 246.964 8.33654C246.307 7.99038 245.447 7.81731 244.384 7.81731H240.905V42H230.99V0H244.384C246.645 0 248.665 0.240385 250.443 0.721154C252.221 1.18269 253.728 1.89423 254.965 2.85577C256.221 3.81731 257.178 5.02885 257.835 6.49038C258.492 7.93269 258.821 9.63461 258.821 11.5962C258.821 13.3077 258.502 14.9135 257.864 16.4135C257.246 17.9135 256.173 19.1346 254.646 20.0769C253.119 21 251.022 21.4808 248.355 21.5192L245.949 24.1442ZM245.601 42H234.73L238.151 34.2115H245.601C246.606 34.2115 247.389 34 247.95 33.5769C248.51 33.1346 248.906 32.5577 249.138 31.8462C249.37 31.1154 249.486 30.3077 249.486 29.4231C249.486 28.3462 249.37 27.4135 249.138 26.625C248.926 25.8365 248.568 25.2308 248.065 24.8077C247.563 24.3654 246.858 24.1442 245.949 24.1442H238.499L238.557 17.5096H247.167L249.544 20.1635C252.076 20.0481 254.057 20.4423 255.487 21.3462C256.917 22.25 257.922 23.4423 258.502 24.9231C259.082 26.4038 259.372 27.9519 259.372 29.5673C259.372 32.3173 258.86 34.6154 257.835 36.4615C256.83 38.3077 255.303 39.6923 253.255 40.6154C251.206 41.5385 248.655 42 245.601 42Z" fill="#E9BF31"/>
<path d="M276.592 42H268.851L268.909 34.2115H276.592C278.041 34.2115 279.22 33.8942 280.129 33.2596C281.056 32.625 281.742 31.5769 282.187 30.1154C282.631 28.6346 282.854 26.6635 282.854 24.2019V17.7692C282.854 15.9231 282.728 14.3654 282.477 13.0962C282.245 11.8269 281.878 10.8077 281.375 10.0385C280.873 9.26923 280.206 8.71154 279.375 8.36539C278.544 8 277.558 7.81731 276.418 7.81731H268.707V0H276.418C278.892 0 281.134 0.403846 283.144 1.21154C285.173 2 286.922 3.17308 288.391 4.73077C289.86 6.26923 290.99 8.13461 291.783 10.3269C292.575 12.5192 292.971 15.0192 292.971 17.8269V24.2019C292.971 26.9904 292.575 29.4904 291.783 31.7019C290.99 33.8942 289.86 35.7596 288.391 37.2981C286.941 38.8365 285.212 40.0096 283.202 40.8173C281.211 41.6058 279.008 42 276.592 42ZM274.65 0V42H264.735V0H274.65Z" fill="#E9BF31"/>
<path d="M336.689 34.2115V42H318.222V34.2115H336.689ZM321.672 0V42H311.757V0H321.672ZM334.282 16.6731V24.2019H318.222V16.6731H334.282ZM336.776 0V7.81731H318.222V0H336.776Z" fill="#E9BF31"/>
<path d="M345.705 0H353.735L360.374 29.2212L367.012 0H375.014L363.65 42H357.098L345.705 0ZM340.747 0H349.067L350.662 32.1923V42H340.747V0ZM371.651 0H380V42H370.056V32.1923L371.651 0Z" fill="#E9BF31"/>
<path d="M218.241 94.7487C218.241 94.1777 218.182 93.6656 218.063 93.2122C217.962 92.7421 217.751 92.3055 217.431 91.9025C217.127 91.4995 216.664 91.0965 216.04 90.6935C215.416 90.2737 214.581 89.8371 213.535 89.3837C212.22 88.8464 210.93 88.2419 209.665 87.5702C208.4 86.8817 207.262 86.0841 206.25 85.1774C205.255 84.2538 204.454 83.1792 203.847 81.9534C203.24 80.7108 202.936 79.2667 202.936 77.6211C202.936 76.0427 203.24 74.6238 203.847 73.3644C204.471 72.0882 205.322 71.0052 206.402 70.1152C207.498 69.2085 208.788 68.52 210.272 68.0498C211.756 67.5629 213.375 67.3194 215.129 67.3194C217.456 67.3194 219.505 67.7896 221.276 68.7299C223.064 69.6534 224.455 70.9716 225.45 72.6844C226.462 74.3803 226.968 76.3869 226.968 78.7042H218.342C218.342 77.7806 218.224 76.9662 217.988 76.261C217.751 75.5557 217.38 75.0016 216.875 74.5986C216.385 74.1956 215.736 73.9941 214.927 73.9941C214.201 73.9941 213.586 74.162 213.08 74.4979C212.591 74.8337 212.22 75.2871 211.967 75.858C211.714 76.4121 211.587 77.025 211.587 77.6967C211.587 78.2508 211.714 78.7546 211.967 79.2079C212.22 79.6445 212.566 80.0559 213.004 80.4421C213.459 80.8283 213.982 81.1977 214.572 81.5504C215.18 81.903 215.829 82.2472 216.52 82.5831C218.19 83.2044 219.666 83.9012 220.947 84.6736C222.246 85.4293 223.334 86.294 224.211 87.268C225.088 88.2251 225.745 89.3165 226.184 90.5423C226.639 91.7681 226.867 93.1534 226.867 94.6983C226.867 96.3439 226.597 97.8048 226.057 99.0809C225.534 100.357 224.767 101.44 223.755 102.33C222.743 103.203 221.521 103.867 220.087 104.32C218.671 104.773 217.068 105 215.281 105C213.645 105 212.034 104.765 210.449 104.295C208.881 103.808 207.456 103.069 206.174 102.078C204.909 101.071 203.897 99.7862 203.138 98.2245C202.379 96.6461 202 94.7738 202 92.6077H210.702C210.702 93.6824 210.786 94.5891 210.955 95.328C211.124 96.0668 211.385 96.6629 211.739 97.1163C212.11 97.5529 212.582 97.8719 213.156 98.0734C213.729 98.2581 214.438 98.3505 215.281 98.3505C216.057 98.3505 216.655 98.191 217.077 97.8719C217.515 97.5361 217.819 97.0995 217.988 96.5622C218.156 96.008 218.241 95.4035 218.241 94.7487Z" fill="#E6A817"/>
<path d="M240.375 67.8232V104.496H231.749V67.8232H240.375ZM232.128 65.9089L237.137 58H246.143L239.085 65.9089H232.128Z" fill="#E6A817"/>
<path d="M272.35 67.8232V104.496H263.724L254.491 81.6763V104.496H245.839V67.8232H254.491L263.724 90.6431V67.8232H272.35Z" fill="#E6A817"/>
<path d="M292.664 67.8232V104.496H283.987V67.8232H292.664ZM301.593 67.8232V74.649H275.31V67.8232H301.593Z" fill="#E6A817"/>
<path d="M327.093 97.6956V104.496H310.979V97.6956H327.093ZM313.989 67.8232V104.496H305.337V67.8232H313.989ZM324.993 82.3816V88.9555H310.979V82.3816H324.993ZM327.168 67.8232V74.649H310.979V67.8232H327.168Z" fill="#E6A817"/>
<path d="M346.09 94.7487C346.09 94.1777 346.031 93.6656 345.913 93.2122C345.812 92.7421 345.601 92.3055 345.281 91.9025C344.977 91.4995 344.514 91.0965 343.89 90.6935C343.266 90.2737 342.431 89.8371 341.385 89.3837C340.07 88.8464 338.78 88.2419 337.515 87.5702C336.25 86.8817 335.112 86.0841 334.1 85.1774C333.105 84.2538 332.304 83.1792 331.697 81.9534C331.089 80.7108 330.786 79.2667 330.786 77.6211C330.786 76.0427 331.089 74.6238 331.697 73.3644C332.321 72.0882 333.172 71.0052 334.252 70.1152C335.348 69.2085 336.638 68.52 338.122 68.0498C339.606 67.5629 341.225 67.3194 342.979 67.3194C345.306 67.3194 347.355 67.7896 349.126 68.7299C350.914 69.6534 352.305 70.9716 353.3 72.6844C354.312 74.3803 354.818 76.3869 354.818 78.7042H346.192C346.192 77.7806 346.074 76.9662 345.837 76.261C345.601 75.5557 345.23 75.0016 344.724 74.5986C344.235 74.1956 343.586 73.9941 342.777 73.9941C342.051 73.9941 341.436 74.162 340.93 74.4979C340.441 74.8337 340.07 75.2871 339.817 75.858C339.564 76.4121 339.437 77.025 339.437 77.6967C339.437 78.2508 339.564 78.7546 339.817 79.2079C340.07 79.6445 340.416 80.0559 340.854 80.4421C341.309 80.8283 341.832 81.1977 342.422 81.5504C343.03 81.903 343.679 82.2472 344.37 82.5831C346.04 83.2044 347.516 83.9012 348.797 84.6736C350.096 85.4293 351.184 86.294 352.06 87.268C352.937 88.2251 353.595 89.3165 354.034 90.5423C354.489 91.7681 354.717 93.1534 354.717 94.6983C354.717 96.3439 354.447 97.8048 353.907 99.0809C353.384 100.357 352.617 101.44 351.605 102.33C350.593 103.203 349.371 103.867 347.937 104.32C346.52 104.773 344.918 105 343.131 105C341.495 105 339.884 104.765 338.299 104.295C336.731 103.808 335.306 103.069 334.024 102.078C332.759 101.071 331.747 99.7862 330.988 98.2245C330.229 96.6461 329.85 94.7738 329.85 92.6077H338.552C338.552 93.6824 338.636 94.5891 338.805 95.328C338.974 96.0668 339.235 96.6629 339.589 97.1163C339.96 97.5529 340.432 97.8719 341.006 98.0734C341.579 98.2581 342.287 98.3505 343.131 98.3505C343.906 98.3505 344.505 98.191 344.927 97.8719C345.365 97.5361 345.669 97.0995 345.837 96.5622C346.006 96.008 346.09 95.4035 346.09 94.7487Z" fill="#E6A817"/>
<path d="M380.924 97.6956V104.496H364.81V97.6956H380.924ZM367.82 67.8232V104.496H359.169V67.8232H367.82ZM378.824 82.3816V88.9555H364.81V82.3816H378.824ZM381 67.8232V74.649H364.81V67.8232H381Z" fill="#E6A817"/>
<rect width="381" height="56" transform="translate(0 129)" fill="#F8E7BD" fill-opacity="0.25"/>
<path d="M40.2344 164.938V168H27.1406V165.359L33.3438 157.312C34.0208 156.406 34.5417 155.625 34.9062 154.969C35.2812 154.302 35.5417 153.703 35.6875 153.172C35.8333 152.641 35.9062 152.12 35.9062 151.609C35.9062 150.901 35.8073 150.276 35.6094 149.734C35.4219 149.193 35.1406 148.771 34.7656 148.469C34.3906 148.156 33.9323 148 33.3906 148C32.7135 148 32.1562 148.182 31.7188 148.547C31.2812 148.901 30.9583 149.396 30.75 150.031C30.5417 150.656 30.4375 151.375 30.4375 152.188H26.7969C26.7969 150.865 27.0521 149.651 27.5625 148.547C28.0833 147.443 28.8385 146.568 29.8281 145.922C30.8177 145.266 32.0208 144.938 33.4375 144.938C34.75 144.938 35.8594 145.193 36.7656 145.703C37.6823 146.214 38.375 146.938 38.8438 147.875C39.3229 148.812 39.5625 149.927 39.5625 151.219C39.5625 151.927 39.4635 152.635 39.2656 153.344C39.0781 154.042 38.8125 154.734 38.4688 155.422C38.125 156.109 37.7083 156.802 37.2188 157.5C36.7396 158.198 36.2083 158.906 35.625 159.625L31.7031 164.938H40.2344ZM55.8125 161.797C55.8125 163.214 55.5365 164.406 54.9844 165.375C54.4427 166.344 53.6927 167.078 52.7344 167.578C51.7865 168.068 50.7135 168.312 49.5156 168.312C48.3073 168.312 47.224 168.068 46.2656 167.578C45.3177 167.078 44.5625 166.344 44 165.375C43.4479 164.406 43.1719 163.214 43.1719 161.797C43.1719 160.849 43.3229 159.995 43.625 159.234C43.9375 158.474 44.375 157.812 44.9375 157.25C45.5104 156.688 46.1823 156.255 46.9531 155.953C47.724 155.651 48.5677 155.5 49.4844 155.5C50.7031 155.5 51.7917 155.766 52.75 156.297C53.7083 156.828 54.4583 157.562 55 158.5C55.5417 159.438 55.8125 160.536 55.8125 161.797ZM52.1875 161.594C52.1875 160.833 52.0729 160.172 51.8438 159.609C51.625 159.047 51.3125 158.615 50.9062 158.312C50.5104 158 50.0365 157.844 49.4844 157.844C48.9323 157.844 48.4583 158 48.0625 158.312C47.6667 158.615 47.3594 159.047 47.1406 159.609C46.9219 160.172 46.8125 160.833 46.8125 161.594C46.8125 162.354 46.9167 163.01 47.125 163.562C47.3438 164.104 47.651 164.521 48.0469 164.812C48.4531 165.104 48.9427 165.25 49.5156 165.25C50.0781 165.25 50.5573 165.104 50.9531 164.812C51.3594 164.521 51.6667 164.104 51.875 163.562C52.0833 163.01 52.1875 162.354 52.1875 161.594ZM55.4219 151.234C55.4219 152.38 55.1667 153.396 54.6562 154.281C54.1458 155.167 53.4479 155.859 52.5625 156.359C51.6771 156.859 50.6615 157.109 49.5156 157.109C48.3594 157.109 47.3333 156.859 46.4375 156.359C45.5417 155.859 44.8385 155.167 44.3281 154.281C43.8281 153.396 43.5781 152.38 43.5781 151.234C43.5781 149.891 43.8281 148.75 44.3281 147.812C44.8385 146.875 45.5417 146.161 46.4375 145.672C47.3333 145.182 48.3594 144.938 49.5156 144.938C50.6719 144.938 51.6927 145.182 52.5781 145.672C53.4635 146.161 54.1562 146.875 54.6562 147.812C55.1667 148.75 55.4219 149.891 55.4219 151.234ZM51.7812 151.375C51.7812 150.708 51.6927 150.125 51.5156 149.625C51.3385 149.115 51.0781 148.719 50.7344 148.438C50.401 148.146 49.9948 148 49.5156 148C49.0365 148 48.625 148.135 48.2812 148.406C47.9375 148.677 47.6719 149.068 47.4844 149.578C47.3073 150.078 47.2188 150.677 47.2188 151.375C47.2188 152.062 47.3073 152.661 47.4844 153.172C47.6719 153.682 47.9375 154.083 48.2812 154.375C48.625 154.656 49.0365 154.797 49.5156 154.797C49.9948 154.797 50.401 154.656 50.7344 154.375C51.0781 154.083 51.3385 153.682 51.5156 153.172C51.6927 152.661 51.7812 152.062 51.7812 151.375ZM72.5781 168H68.625L68.6562 164.828H72.5781C73.7969 164.828 74.7708 164.604 75.5 164.156C76.2292 163.698 76.7552 163 77.0781 162.062C77.401 161.125 77.5625 159.927 77.5625 158.469V154.766C77.5625 153.641 77.4688 152.682 77.2812 151.891C77.1042 151.089 76.8229 150.438 76.4375 149.938C76.0625 149.427 75.5677 149.052 74.9531 148.812C74.3385 148.562 73.599 148.438 72.7344 148.438H68.5469V145.25H72.7344C74.0365 145.25 75.2135 145.458 76.2656 145.875C77.3177 146.292 78.2188 146.906 78.9688 147.719C79.7292 148.521 80.3125 149.516 80.7188 150.703C81.125 151.891 81.3281 153.255 81.3281 154.797V158.469C81.3281 160.01 81.125 161.375 80.7188 162.562C80.3125 163.74 79.7292 164.734 78.9688 165.547C78.2083 166.349 77.2917 166.958 76.2188 167.375C75.1458 167.792 73.9323 168 72.5781 168ZM70.7969 145.25V168H67V145.25H70.7969ZM97.8594 164.828V168H87.9844V164.828H97.8594ZM88.9844 145.25V168H85.1875V145.25H88.9844ZM96.5312 154.719V157.844H87.9844V154.719H96.5312ZM97.7656 145.25V148.438H87.9844V145.25H97.7656ZM109.672 145.25H113.125L118.359 162.172L123.578 145.25H126.781L119.781 168H116.922L109.672 145.25ZM108.375 145.25H111.562L112.078 159.734V168H108.375V145.25ZM125.125 145.25H128.328V168H124.625V159.734L125.125 145.25ZM140.719 148.375L135.219 168H131.25L138.469 145.25H140.938L140.719 148.375ZM145.109 168L139.594 148.375L139.328 145.25H141.844L149.094 168H145.109ZM145.203 159.547V162.734H134.609V159.547H145.203ZM151.703 145.25H158.578C160.078 145.25 161.349 145.51 162.391 146.031C163.432 146.552 164.224 147.323 164.766 148.344C165.318 149.354 165.594 150.609 165.594 152.109C165.594 153.245 165.422 154.245 165.078 155.109C164.745 155.974 164.26 156.703 163.625 157.297C162.99 157.88 162.224 158.333 161.328 158.656L160.219 159.266H154.406L154.391 156.078H158.484C159.224 156.078 159.839 155.917 160.328 155.594C160.818 155.271 161.182 154.823 161.422 154.25C161.672 153.677 161.797 153.026 161.797 152.297C161.797 151.516 161.688 150.839 161.469 150.266C161.25 149.682 160.906 149.234 160.438 148.922C159.969 148.599 159.349 148.438 158.578 148.438H155.5V168H151.703V145.25ZM162.297 168L157.969 157.781L161.922 157.766L166.359 167.797V168H162.297ZM180.156 160.578H183.938C183.865 162.224 183.531 163.625 182.938 164.781C182.344 165.927 181.49 166.802 180.375 167.406C179.271 168.01 177.922 168.312 176.328 168.312C175.12 168.312 174.036 168.094 173.078 167.656C172.13 167.219 171.323 166.589 170.656 165.766C169.99 164.932 169.479 163.917 169.125 162.719C168.781 161.521 168.609 160.161 168.609 158.641V154.609C168.609 153.089 168.786 151.729 169.141 150.531C169.505 149.333 170.026 148.318 170.703 147.484C171.38 146.651 172.203 146.021 173.172 145.594C174.151 145.156 175.255 144.938 176.484 144.938C178.057 144.938 179.38 145.24 180.453 145.844C181.526 146.448 182.354 147.333 182.938 148.5C183.521 149.667 183.859 151.089 183.953 152.766H180.172C180.12 151.63 179.964 150.724 179.703 150.047C179.453 149.359 179.068 148.865 178.547 148.562C178.036 148.26 177.349 148.109 176.484 148.109C175.766 148.109 175.146 148.245 174.625 148.516C174.115 148.786 173.693 149.193 173.359 149.734C173.036 150.266 172.792 150.938 172.625 151.75C172.469 152.552 172.391 153.495 172.391 154.578V158.641C172.391 159.682 172.458 160.604 172.594 161.406C172.729 162.208 172.948 162.891 173.25 163.453C173.552 164.005 173.953 164.427 174.453 164.719C174.953 165 175.578 165.141 176.328 165.141C177.224 165.141 177.938 165 178.469 164.719C179.01 164.438 179.411 163.964 179.672 163.297C179.932 162.63 180.094 161.724 180.156 160.578ZM174.953 168.031H177.609L177.469 168.906C177.938 169.01 178.37 169.26 178.766 169.656C179.172 170.062 179.375 170.714 179.375 171.609C179.375 172.141 179.281 172.62 179.094 173.047C178.917 173.474 178.641 173.844 178.266 174.156C177.891 174.469 177.427 174.708 176.875 174.875C176.333 175.042 175.693 175.125 174.953 175.125L174.859 172.938C175.182 172.938 175.458 172.891 175.688 172.797C175.917 172.703 176.094 172.552 176.219 172.344C176.354 172.146 176.422 171.88 176.422 171.547C176.422 171.234 176.354 170.99 176.219 170.812C176.094 170.635 175.896 170.5 175.625 170.406C175.354 170.312 174.99 170.245 174.531 170.203L174.953 168.031ZM202.719 154.766V158.641C202.719 160.245 202.531 161.651 202.156 162.859C201.792 164.068 201.26 165.078 200.562 165.891C199.875 166.693 199.042 167.297 198.062 167.703C197.094 168.109 196.01 168.312 194.812 168.312C193.625 168.312 192.542 168.109 191.562 167.703C190.594 167.297 189.755 166.693 189.047 165.891C188.349 165.078 187.807 164.068 187.422 162.859C187.047 161.651 186.859 160.245 186.859 158.641V154.766C186.859 153.141 187.047 151.719 187.422 150.5C187.797 149.271 188.333 148.245 189.031 147.422C189.74 146.599 190.578 145.979 191.547 145.562C192.526 145.146 193.604 144.938 194.781 144.938C195.979 144.938 197.062 145.146 198.031 145.562C199.01 145.979 199.849 146.599 200.547 147.422C201.245 148.245 201.781 149.271 202.156 150.5C202.531 151.719 202.719 153.141 202.719 154.766ZM198.953 158.641V154.734C198.953 153.578 198.859 152.589 198.672 151.766C198.495 150.932 198.229 150.255 197.875 149.734C197.521 149.203 197.083 148.812 196.562 148.562C196.052 148.302 195.458 148.172 194.781 148.172C194.125 148.172 193.536 148.302 193.016 148.562C192.505 148.812 192.068 149.203 191.703 149.734C191.349 150.255 191.078 150.932 190.891 151.766C190.714 152.589 190.625 153.578 190.625 154.734V158.641C190.625 159.776 190.719 160.755 190.906 161.578C191.094 162.391 191.365 163.057 191.719 163.578C192.083 164.089 192.526 164.469 193.047 164.719C193.568 164.969 194.156 165.094 194.812 165.094C195.479 165.094 196.073 164.969 196.594 164.719C197.115 164.469 197.547 164.089 197.891 163.578C198.245 163.057 198.51 162.391 198.688 161.578C198.865 160.755 198.953 159.776 198.953 158.641ZM217.398 145.25V172.219H214.867V145.25H217.398ZM238.788 145.172V168H235.148V149.734L230.616 151.609V148.438L238.351 145.172H238.788ZM259.405 159.844V162.906H245.499L245.405 160.578L253.467 145.25H256.358L253.421 150.953L249.124 159.844H259.405ZM257.202 145.25V168H253.546V145.25H257.202ZM278.123 164.562V156.141C278.123 155.557 278.04 155.089 277.873 154.734C277.717 154.38 277.482 154.125 277.17 153.969C276.868 153.802 276.488 153.719 276.029 153.719C275.55 153.719 275.144 153.818 274.811 154.016C274.488 154.214 274.243 154.484 274.076 154.828C273.91 155.161 273.826 155.547 273.826 155.984H270.186C270.186 155.307 270.321 154.656 270.592 154.031C270.873 153.406 271.274 152.849 271.795 152.359C272.316 151.87 272.946 151.484 273.686 151.203C274.425 150.922 275.248 150.781 276.154 150.781C277.238 150.781 278.201 150.964 279.045 151.328C279.889 151.682 280.55 152.26 281.029 153.062C281.519 153.854 281.764 154.896 281.764 156.188V164.078C281.764 164.859 281.811 165.557 281.904 166.172C282.009 166.776 282.149 167.302 282.326 167.75V168H278.623C278.456 167.594 278.331 167.073 278.248 166.438C278.165 165.802 278.123 165.177 278.123 164.562ZM278.607 157.703L278.623 160.062H276.873C276.352 160.062 275.884 160.135 275.467 160.281C275.05 160.417 274.696 160.615 274.404 160.875C274.123 161.125 273.904 161.432 273.748 161.797C273.602 162.161 273.529 162.562 273.529 163C273.529 163.531 273.602 163.964 273.748 164.297C273.904 164.63 274.128 164.88 274.42 165.047C274.722 165.203 275.087 165.281 275.514 165.281C276.097 165.281 276.602 165.156 277.029 164.906C277.467 164.646 277.8 164.333 278.029 163.969C278.269 163.604 278.363 163.271 278.311 162.969L279.139 164.484C279.055 164.88 278.899 165.297 278.67 165.734C278.451 166.172 278.165 166.589 277.811 166.984C277.456 167.38 277.029 167.703 276.529 167.953C276.029 168.193 275.451 168.312 274.795 168.312C273.847 168.312 273.003 168.115 272.264 167.719C271.524 167.323 270.941 166.755 270.514 166.016C270.097 165.266 269.889 164.37 269.889 163.328C269.889 162.484 270.029 161.719 270.311 161.031C270.592 160.344 271.009 159.755 271.561 159.266C272.113 158.766 272.805 158.38 273.639 158.109C274.482 157.839 275.467 157.703 276.592 157.703H278.607ZM275.061 144L278.123 148.719H274.982L270.779 144H275.061ZM293.646 163.547C293.646 163.193 293.542 162.88 293.334 162.609C293.136 162.328 292.813 162.052 292.365 161.781C291.917 161.51 291.318 161.219 290.568 160.906C289.787 160.583 289.094 160.26 288.49 159.938C287.886 159.615 287.375 159.26 286.959 158.875C286.542 158.479 286.224 158.026 286.006 157.516C285.787 157.005 285.677 156.411 285.677 155.734C285.677 155.036 285.808 154.391 286.068 153.797C286.329 153.203 286.704 152.682 287.193 152.234C287.683 151.776 288.271 151.422 288.959 151.172C289.646 150.911 290.422 150.781 291.287 150.781C292.506 150.781 293.547 151.005 294.412 151.453C295.287 151.891 295.954 152.505 296.412 153.297C296.881 154.078 297.115 154.979 297.115 156H293.474C293.474 155.573 293.396 155.188 293.24 154.844C293.084 154.49 292.844 154.208 292.521 154C292.198 153.781 291.787 153.672 291.287 153.672C290.829 153.672 290.443 153.76 290.131 153.938C289.829 154.104 289.599 154.333 289.443 154.625C289.297 154.906 289.224 155.224 289.224 155.578C289.224 155.839 289.271 156.068 289.365 156.266C289.459 156.464 289.615 156.656 289.834 156.844C290.052 157.021 290.344 157.203 290.709 157.391C291.084 157.578 291.558 157.792 292.131 158.031C293.266 158.469 294.209 158.922 294.959 159.391C295.709 159.859 296.271 160.406 296.646 161.031C297.021 161.656 297.209 162.432 297.209 163.359C297.209 164.109 297.068 164.786 296.787 165.391C296.516 165.995 296.12 166.516 295.599 166.953C295.089 167.391 294.469 167.729 293.74 167.969C293.021 168.198 292.219 168.312 291.334 168.312C290.011 168.312 288.891 168.052 287.974 167.531C287.068 167 286.381 166.318 285.912 165.484C285.443 164.651 285.209 163.771 285.209 162.844H288.724C288.756 163.51 288.896 164.031 289.146 164.406C289.407 164.781 289.735 165.042 290.131 165.188C290.526 165.323 290.938 165.391 291.365 165.391C291.875 165.391 292.297 165.323 292.631 165.188C292.964 165.042 293.214 164.828 293.381 164.547C293.558 164.266 293.646 163.932 293.646 163.547ZM317.239 145.172V168H313.599V149.734L309.068 151.609V148.438L316.802 145.172H317.239ZM337.2 161.797C337.2 163.214 336.924 164.406 336.372 165.375C335.83 166.344 335.08 167.078 334.122 167.578C333.174 168.068 332.101 168.312 330.903 168.312C329.695 168.312 328.611 168.068 327.653 167.578C326.705 167.078 325.95 166.344 325.388 165.375C324.835 164.406 324.559 163.214 324.559 161.797C324.559 160.849 324.71 159.995 325.013 159.234C325.325 158.474 325.763 157.812 326.325 157.25C326.898 156.688 327.57 156.255 328.341 155.953C329.111 155.651 329.955 155.5 330.872 155.5C332.091 155.5 333.179 155.766 334.138 156.297C335.096 156.828 335.846 157.562 336.388 158.5C336.929 159.438 337.2 160.536 337.2 161.797ZM333.575 161.594C333.575 160.833 333.46 160.172 333.231 159.609C333.013 159.047 332.7 158.615 332.294 158.312C331.898 158 331.424 157.844 330.872 157.844C330.32 157.844 329.846 158 329.45 158.312C329.054 158.615 328.747 159.047 328.528 159.609C328.309 160.172 328.2 160.833 328.2 161.594C328.2 162.354 328.304 163.01 328.513 163.562C328.731 164.104 329.039 164.521 329.434 164.812C329.841 165.104 330.33 165.25 330.903 165.25C331.466 165.25 331.945 165.104 332.341 164.812C332.747 164.521 333.054 164.104 333.263 163.562C333.471 163.01 333.575 162.354 333.575 161.594ZM336.809 151.234C336.809 152.38 336.554 153.396 336.044 154.281C335.533 155.167 334.835 155.859 333.95 156.359C333.065 156.859 332.049 157.109 330.903 157.109C329.747 157.109 328.721 156.859 327.825 156.359C326.929 155.859 326.226 155.167 325.716 154.281C325.216 153.396 324.966 152.38 324.966 151.234C324.966 149.891 325.216 148.75 325.716 147.812C326.226 146.875 326.929 146.161 327.825 145.672C328.721 145.182 329.747 144.938 330.903 144.938C332.059 144.938 333.08 145.182 333.966 145.672C334.851 146.161 335.544 146.875 336.044 147.812C336.554 148.75 336.809 149.891 336.809 151.234ZM333.169 151.375C333.169 150.708 333.08 150.125 332.903 149.625C332.726 149.115 332.466 148.719 332.122 148.438C331.789 148.146 331.382 148 330.903 148C330.424 148 330.013 148.135 329.669 148.406C329.325 148.677 329.059 149.068 328.872 149.578C328.695 150.078 328.606 150.677 328.606 151.375C328.606 152.062 328.695 152.661 328.872 153.172C329.059 153.682 329.325 154.083 329.669 154.375C330.013 154.656 330.424 154.797 330.903 154.797C331.382 154.797 331.789 154.656 332.122 154.375C332.466 154.083 332.726 153.682 332.903 153.172C333.08 152.661 333.169 152.062 333.169 151.375ZM344.614 144V168H340.989V144H344.614ZM343.973 158.938H342.817C342.806 157.76 342.931 156.677 343.192 155.688C343.452 154.698 343.827 153.833 344.317 153.094C344.806 152.354 345.395 151.786 346.082 151.391C346.78 150.984 347.551 150.781 348.395 150.781C349.093 150.781 349.723 150.901 350.286 151.141C350.859 151.37 351.348 151.734 351.754 152.234C352.171 152.734 352.489 153.391 352.707 154.203C352.926 155.005 353.036 155.984 353.036 157.141V168H349.395V157.109C349.395 156.307 349.306 155.672 349.129 155.203C348.963 154.734 348.713 154.396 348.379 154.188C348.046 153.979 347.624 153.875 347.114 153.875C346.614 153.875 346.166 154.01 345.77 154.281C345.385 154.542 345.056 154.906 344.786 155.375C344.515 155.833 344.312 156.37 344.176 156.984C344.041 157.589 343.973 158.24 343.973 158.938Z" fill="#F8E7BD"/>
</svg>
