<svg width="300" height="300" viewBox="0 0 300 300" fill="none" xmlns="http://www.w3.org/2000/svg">
<mask id="path-1-inside-1_957_128" fill="white">
<path d="M300 150C300 120.333 291.203 91.3318 274.72 66.6645C258.238 41.9971 234.811 22.7712 207.403 11.4181C179.994 0.064925 149.834 -2.90558 120.737 2.88221C91.6394 8.66999 64.9119 22.9561 43.934 43.934C22.9562 64.9119 8.67005 91.6393 2.88227 120.736C-2.90551 149.834 0.0649864 179.994 11.4181 207.403C22.7713 234.811 41.9972 258.238 66.6645 274.72C91.3319 291.203 120.333 300 150 300V262.5C127.75 262.5 105.999 255.902 87.4984 243.54C68.9979 231.179 54.5785 213.609 46.0636 193.052C37.5488 172.495 35.3209 149.875 39.6617 128.052C44.0026 106.229 54.7171 86.1839 70.4505 70.4505C86.184 54.7171 106.23 44.0025 128.052 39.6617C149.875 35.3208 172.495 37.5487 193.052 46.0636C213.609 54.5784 231.179 68.9978 243.54 87.4984C255.902 105.999 262.5 127.75 262.5 150H300Z"/>
</mask>
<path d="M300 150C300 120.333 291.203 91.3318 274.72 66.6645C258.238 41.9971 234.811 22.7712 207.403 11.4181C179.994 0.064925 149.834 -2.90558 120.737 2.88221C91.6394 8.66999 64.9119 22.9561 43.934 43.934C22.9562 64.9119 8.67005 91.6393 2.88227 120.736C-2.90551 149.834 0.0649864 179.994 11.4181 207.403C22.7713 234.811 41.9972 258.238 66.6645 274.72C91.3319 291.203 120.333 300 150 300V262.5C127.75 262.5 105.999 255.902 87.4984 243.54C68.9979 231.179 54.5785 213.609 46.0636 193.052C37.5488 172.495 35.3209 149.875 39.6617 128.052C44.0026 106.229 54.7171 86.1839 70.4505 70.4505C86.184 54.7171 106.23 44.0025 128.052 39.6617C149.875 35.3208 172.495 37.5487 193.052 46.0636C213.609 54.5784 231.179 68.9978 243.54 87.4984C255.902 105.999 262.5 127.75 262.5 150H300Z" stroke="url(#paint0_linear_957_128)" stroke-width="16" mask="url(#path-1-inside-1_957_128)"/>
<defs>
<linearGradient id="paint0_linear_957_128" x1="-3.00003" y1="293.993" x2="351.156" y2="210.659" gradientUnits="userSpaceOnUse">
<stop stop-color="#786F52"/>
<stop offset="0.5" stop-color="#C79114"/>
<stop offset="0.75" stop-color="#E6A817"/>
<stop offset="1" stop-color="#E6A817"/>
</linearGradient>
</defs>
</svg>
